<svg xmlns="http://www.w3.org/2000/svg" xmlns:xlink="http://www.w3.org/1999/xlink" id="body_1" preserveAspectRatio="xMinYMin meet" viewBox="0 0 792 1121"><defs><clipPath id="1"><path d="M0 841L0 -0.9199829L0 -0.9199829L594.96 -0.9199829L594.96 -0.9199829L594.96 841L594.96 841L0 841z" /></clipPath><clipPath id="2"><path d="M0 -0.9199829L594.9999 -0.9199829L594.9999 -0.9199829L594.9999 825.6354L594.9999 825.6354L0 825.6354z" /></clipPath><clipPath id="3"><path d="M0 -0.9199829L594.9999 -0.9199829L594.9999 -0.9199829L594.9999 826.08L594.9999 826.08L0 826.08z" /></clipPath><clipPath id="4"><path d="M0 -0.9199829L594.9999 -0.9199829L594.9999 -0.9199829L594.9999 825.6354L594.9999 825.6354L0 825.6354z" /></clipPath><clipPath id="5"><path d="M492.3363 84.50824L492.3363 26.8067C 492.3362 25.81299 492.5263 24.85706 492.9066 23.93903C 493.2869 23.02094 493.8284 22.21051 494.5311 21.50787C 495.2337 20.80518 496.0441 20.26373 496.9622 19.88342C 497.8803 19.50317 498.8362 19.31299 499.83 19.31299L499.83 19.31299L557.5314 19.31299C 558.5251 19.31299 559.481 19.50317 560.3991 19.88342C 561.3171 20.26373 562.1275 20.80518 562.8302 21.50787C 563.5329 22.21051 564.0743 23.02094 564.4546 23.93903C 564.835 24.85706 565.0251 25.81299 565.0251 26.8067L565.0251 26.8067L565.0251 84.50824C 565.0251 85.50195 564.835 86.45782 564.4546 87.37592C 564.0743 88.29401 563.5329 89.10437 562.8302 89.80707C 562.1275 90.50977 561.3171 91.05121 560.3991 91.43152C 559.481 91.81177 558.5251 92.00189 557.5314 92.00195L557.5314 92.00195L499.83 92.00195C 498.8362 92.00189 497.8803 91.81177 496.9622 91.43152C 496.0441 91.05121 495.2337 90.50977 494.5311 89.80707C 493.8284 89.10437 493.2869 88.29401 492.9066 87.37592C 492.5263 86.45782 492.3362 85.50195 492.3363 84.50824z" /></clipPath><clipPath id="6"><path d="M0 -0.9199829L594.9999 -0.9199829L594.9999 -0.9199829L594.9999 825.6354L594.9999 825.6354L0 825.6354z" /></clipPath></defs><g transform="matrix(1.333333 0 0 1.333333 0 0)"><g><g clip-path="url(#1)"><g clip-path="url(#2)"><path transform="matrix(1 0 0 -1 0 841)" d="M0 841.92L594.9999 841.92L594.9999 841.92L594.9999 15.36462L594.9999 15.36462L0 15.36462z" stroke="none" fill="#FFFFFF" fill-rule="winding" /><path transform="matrix(1 0 0 -1 0 841)" d="M0 841.92L594.9999 841.92L594.9999 841.92L594.9999 728.7651L594.9999 728.7651L0 728.7651z" stroke="none" fill="#343A4B" fill-rule="winding" /><path transform="matrix(1 0 0 -1 0 841)" d="M96.75401 799.9274L96.75401 797.3094L96.75401 797.3094L76.75922 797.3094L76.75922 797.3094L76.75922 799.9274L76.75922 799.9274L85.56834 799.9274L85.56834 799.9274L85.56834 804.2798L85.56834 804.2798L78.66923 804.2798L78.66923 804.2798L78.66923 806.854L78.66923 806.854L85.56834 806.854L85.56834 806.854L85.56834 810.46L85.56834 810.46L80.91405 810.46C 80.6323 809.8599 80.28287 809.2067 79.86574 808.5005C 79.44861 807.7944 78.9089 806.9363 78.24661 805.9265L78.24661 805.9265L75.99081 807.5565C 77.08853 809.1153 77.98865 810.5515 78.69118 811.8651C 79.39738 813.1823 79.99563 814.7996 80.48594 816.7169L80.48594 816.7169L82.99969 816.0473C 82.74357 815.1655 82.52768 814.4648 82.35205 813.9452C 82.18008 813.4293 82.08128 813.1402 82.05566 813.078L82.05566 813.078L85.56834 813.078L85.56834 813.078L85.56834 817.4579L85.56834 817.4579L88.27969 817.3591L88.27969 817.3591L88.27969 813.078L88.27969 813.078L95.78802 813.078L95.78802 813.078L95.78802 810.46L95.78802 810.46L88.27969 810.46L88.27969 810.46L88.27969 806.854L88.27969 806.854L95.04707 806.854L95.04707 806.854L95.04707 804.2798L95.04707 804.2798L88.27969 804.2798L88.27969 804.2798L88.27969 799.9274L88.27969 799.9274L96.75401 799.9274zM74.26741 802.0405C 74.22717 801.2685 74.17593 800.6501 74.11373 800.1854C 74.05153 799.7207 73.95822 799.2267 73.83382 798.7035C 73.7643 798.4218 73.66367 798.1656 73.53194 797.9351C 73.40388 797.7046 73.20812 797.5161 72.94467 797.3698C 72.68488 797.2234 72.36838 797.1136 71.99516 797.0405C 71.62559 796.9636 71.15357 796.9106 70.57911 796.8813C 70.22784 796.8521 69.82717 796.8374 69.37711 796.8374C 68.92706 796.8374 68.52639 796.8521 68.17512 796.8813C 67.63725 796.9142 67.17438 796.9838 66.78651 797.0898C 66.39866 797.1923 66.07117 797.3661 65.80407 797.6113C 65.54062 797.8528 65.35583 798.1693 65.24973 798.5608C 65.14361 798.956 65.09055 799.4298 65.09055 799.9823L65.09055 799.9823L65.09055 805.5806L65.09055 805.5806L62.26944 805.8935C 62.478 805.8825 62.5768 805.8203 62.56582 805.7069C 62.5585 805.5971 62.54935 805.5038 62.53838 805.427C 62.46154 804.1975 62.28408 803.1254 62.00599 802.2107C 61.73156 801.2996 61.31626 800.4781 60.76009 799.7463C 60.20757 799.0145 59.51053 798.3541 58.66895 797.765C 57.83103 797.1758 56.6949 796.5117 55.26056 795.7726L55.26056 795.7726L53.69632 798.1766C 55.0831 798.8133 56.12775 799.364 56.83029 799.8287C 57.53648 800.297 58.10363 800.7946 58.53174 801.3215C 58.9635 801.8521 59.28001 802.4521 59.48125 803.1218C 59.68616 803.795 59.81057 804.5945 59.85448 805.5203C 59.85448 805.6008 59.85814 805.6904 59.86546 805.7892C 59.87277 805.8917 59.98803 805.9337 60.21124 805.9155L60.21124 805.9155L53.82805 805.5806L53.82805 805.5806L53.82805 808.1108L53.82805 808.1108L62.97746 808.1108L62.97746 808.1108L62.97746 811.3162L62.97746 811.3162L59.00375 811.3162C 58.79519 810.8478 58.52808 810.3044 58.20242 809.6861C 57.87677 809.0677 57.45232 808.3469 56.92908 807.5236L56.92908 807.5236L54.55803 808.7859C 55.50206 810.1544 56.22655 811.4296 56.73149 812.6115C 57.2401 813.797 57.73407 815.2076 58.2134 816.8431L58.2134 816.8431L60.82595 816.3217C 60.4381 815.0557 60.16916 814.2233 60.01913 813.8245L60.01913 813.8245L62.97746 813.8245L62.97746 813.8245L62.97746 817.5292L62.97746 817.5292L65.61745 817.3975L65.61745 817.3975L65.61745 813.8245L65.61745 813.8245L73.01602 813.8245L73.01602 813.8245L73.01602 811.3162L73.01602 811.3162L65.61745 811.3162L65.61745 811.3162L65.61745 808.1108L65.61745 808.1108L74.04787 808.1108L74.04787 808.1108L74.04787 805.5806L74.04787 805.5806L67.7525 805.5806L67.7525 805.5806L67.7525 800.5422C 67.7525 800.2823 67.76714 800.0921 67.79641 799.9714C 67.82935 799.8506 67.87325 799.7628 67.92814 799.7079C 67.98302 799.653 68.07816 799.6036 68.21354 799.5597C 68.34892 799.5158 68.55383 799.4792 68.82826 799.45C 69.00755 799.4243 69.23624 799.4115 69.51433 799.4115C 69.79241 799.4115 70.0211 799.4243 70.20039 799.45C 70.548 799.4792 70.80962 799.5121 70.98526 799.5487C 71.1609 799.589 71.27615 799.6274 71.33104 799.664C 71.38958 799.7006 71.42983 799.7427 71.45178 799.7902C 71.4774 799.8414 71.50301 799.9348 71.52863 800.0701C 71.60181 800.4141 71.65121 800.7818 71.67682 801.1733C 71.70609 801.5649 71.73719 802.1375 71.77012 802.8912L71.77012 802.8912L74.26741 802.0405zM44.37676 805.921C 44.96221 805.1818 45.93734 804.2725 47.30216 803.1931C 48.66698 802.1137 50.37026 801.0837 52.412 800.1031L52.412 800.1031L50.8807 797.732C 48.82798 798.8041 47.11006 799.9348 45.72695 801.124C 44.34749 802.3168 43.44005 803.1986 43.00463 803.7694L43.00463 803.7694L43.00463 796.2556L43.00463 796.2556L40.35915 796.2556L40.35915 796.2556L40.35915 803.6761C 39.89811 803.0541 38.98701 802.1576 37.62585 800.9868C 36.26469 799.8159 34.49554 798.6468 32.31842 797.4796L32.31842 797.4796L30.73771 799.8067C 32.90386 800.8459 34.66569 801.9253 36.02319 803.0449C 37.38069 804.1683 38.35582 805.127 38.94859 805.921L38.94859 805.921L31.52807 805.921L31.52807 805.921L31.52807 808.4292L31.52807 808.4292L40.35915 808.4292L40.35915 808.4292L40.35915 811.2284L40.35915 811.2284L36.4513 811.2284C 36.27566 810.8295 36.03783 810.3612 35.73779 809.8233C 35.4414 809.2891 35.05903 808.6597 34.59068 807.9352L34.59068 807.9352L32.34037 809.2744C 33.18561 810.5148 33.86802 811.7077 34.3876 812.853C 34.91084 813.9982 35.38286 815.3063 35.80365 816.7773L35.80365 816.7773L38.26801 816.1351C 37.93138 815.0082 37.67524 814.2141 37.49961 813.7531L37.49961 813.7531L40.35915 813.7531L40.35915 813.7531L40.35915 817.5237L40.35915 817.5237L43.00463 817.4249L43.00463 817.4249L43.00463 813.7531L43.00463 813.7531L50.19463 813.7531L50.19463 813.7531L50.19463 811.2284L50.19463 811.2284L43.00463 811.2284L43.00463 811.2284L43.00463 808.4292L43.00463 808.4292L51.68203 808.4292L51.68203 808.4292L51.68203 805.921L51.68203 805.921L44.37676 805.921z" stroke="none" fill="#FFFFFF" fill-rule="winding" /></g><g clip-path="url(#3)"><g clip-path="url(#4)"><g clip-path="url(#5)"><g transform="matrix(0.3634445 0 0 0.3634445 492.3362 19.31305)"><g transform="matrix(1 0 0 1 0 0)"><image x="0" y="0" xlink:href="img_01.png" width="200" height="200" /></g></g></g></g></g><g clip-path="url(#6)"><path transform="matrix(1 0 0 -1 0 841)" d="M46.56395 504.4749L46.56395 505.4048L46.56395 505.4048L42.83942 505.4048L42.83942 505.4048L42.83942 504.4749L42.83942 504.4749L46.56395 504.4749zM46.32136 506.4822C 46.31501 506.4854 46.10413 506.636 45.68871 506.9341C 45.27329 507.2322 44.94666 507.5025 44.70882 507.7451C 44.4472 507.4835 44.11026 507.2084 43.69801 506.9198C 43.28735 506.6313 43.07647 506.4846 43.06536 506.4799L43.06536 506.4799L46.32136 506.4822zM48.93281 505.2883C 48.57605 505.4215 48.28431 505.5356 48.05757 505.6308C 47.83083 505.7275 47.70874 505.7798 47.6913 505.7878L47.6913 505.7878L47.6913 503.0003L47.6913 503.0003L46.56395 503.0003L46.56395 503.0003L46.56395 503.4189L46.56395 503.4189L42.83942 503.4189L42.83942 503.4189L42.83942 503.0003L42.83942 503.0003L41.71445 503.0003L41.71445 503.0003L41.71445 505.821C 41.70335 505.8163 41.58681 505.7671 41.36483 505.6736C 41.14443 505.5816 40.85903 505.469 40.50862 505.3358L40.50862 505.3358L39.97824 506.311C 40.60296 506.5393 41.11351 506.7415 41.50991 506.9175C 41.90631 507.0935 42.26782 507.2766 42.59445 507.4669C 42.92266 507.6571 43.21917 507.8577 43.48396 508.0686C 43.74875 508.2811 44.01513 508.5284 44.28309 508.8106L44.28309 508.8106L45.14169 508.8106C 45.64907 508.2747 46.22464 507.8141 46.86838 507.4288C 47.51371 507.0451 48.36993 506.6685 49.43702 506.2991L49.43702 506.2991L48.93281 505.2883zM44.24979 509.3172C 43.985 509.1175 43.73845 508.9462 43.51012 508.8035C 43.2818 508.6608 43.04158 508.5205 42.78947 508.3825C 42.53737 508.2446 42.28288 508.1098 42.02602 507.9782C 41.77074 507.8482 41.47503 507.7063 41.13889 507.5525L41.13889 507.5525L40.65132 508.5562C 40.96843 508.6703 41.24591 508.7845 41.48375 508.8987C 41.72317 509.0144 41.96814 509.1412 42.21867 509.2792C 42.46918 509.4171 42.71099 509.5559 42.94407 509.6954C 43.17715 509.8365 43.42767 510.0078 43.69564 510.2091L43.69564 510.2091L44.24979 509.3172zM45.59357 510.183C 45.92655 510.0339 46.21671 509.8991 46.46406 509.7787C 46.713 509.6581 46.96193 509.5337 47.21087 509.4052C 47.4598 509.2784 47.70557 509.146 47.94817 509.0081C 48.19076 508.8717 48.47616 508.706 48.80438 508.511L48.80438 508.511L48.29303 507.474C 47.7349 507.8894 47.20691 508.2295 46.70903 508.4943C 46.21275 508.7607 45.66889 509.0287 45.07747 509.2982L45.07747 509.2982L45.59357 510.183zM41.83575 509.02L40.73932 509.02L40.73932 509.02L40.73932 511.1771L40.73932 511.1771L44.08569 511.1724C 44.08252 511.1692 44.05318 511.2524 43.99769 511.4221C 43.94378 511.5918 43.8645 511.805 43.75985 512.0619L43.75985 512.0619L44.88244 512.2759C 44.97758 512.0555 45.06161 511.8391 45.13455 511.6266C 45.20907 511.4142 45.25902 511.2643 45.28439 511.1771L45.28439 511.1771L48.65454 511.1771L48.65454 511.1771L48.65454 509.0009L48.65454 509.0009L47.5486 509.0009L47.5486 509.0009L47.5486 510.1211L47.5486 510.1211L41.83575 510.1211L41.83575 510.1211L41.83575 509.02zM38.70819 510.6705L38.70819 504.5272C 38.70819 504.2751 38.68441 504.0626 38.63684 503.8898C 38.59085 503.717 38.49889 503.5767 38.36095 503.4688C 38.22459 503.3594 38.05255 503.2833 37.84484 503.2405C 37.63871 503.1977 37.38423 503.1573 37.08138 503.1192L37.08138 503.1192L36.4416 503.0383L36.4416 503.0383L36.0349 504.1752L36.0349 504.1752L36.91965 504.2608C 37.09882 504.2783 37.2336 504.2965 37.32397 504.3155C 37.41435 504.3346 37.47144 504.3544 37.49522 504.375C 37.519 504.3972 37.53644 504.436 37.54754 504.4915C 37.55864 504.547 37.56419 504.6398 37.56419 504.7698L37.56419 504.7698L37.56419 509.5551L37.56419 509.5551L35.52831 509.5551C 35.52514 509.4552 35.51324 509.3006 35.49263 509.0913C 35.47202 508.8836 35.44744 508.7179 35.4189 508.5942C 35.54099 508.4896 35.71699 508.3286 35.9469 508.1114C 36.17681 507.8958 36.40434 507.6714 36.62949 507.4383C 36.85464 507.2068 37.06791 506.9769 37.26927 506.7486C 37.47064 506.5203 37.66884 506.2745 37.86386 506.0113L37.86386 506.0113L37.08614 505.0267C 36.87843 505.347 36.69133 505.6109 36.52484 505.8187C 36.35994 506.0264 36.17919 506.2372 35.98257 506.4513C 35.78755 506.6669 35.58855 506.877 35.3856 507.0816C 35.18423 507.2877 35.06293 507.4098 35.02171 507.4478C 34.90121 507.1672 34.65941 506.8192 34.29631 506.4037C 33.9348 505.9883 33.40918 505.5182 32.71945 504.9934L32.71945 504.9934L31.99642 505.9399C 32.55138 506.3522 32.96997 506.7026 33.2522 506.9912C 33.53602 507.2814 33.7588 507.5692 33.92052 507.8546C 34.08384 508.14 34.1988 508.4349 34.26539 508.7393C 34.33357 509.0437 34.37004 509.3157 34.37479 509.5551L34.37479 509.5551L32.36745 509.5551L32.36745 509.5551L32.36745 503.0764L32.36745 503.0764L31.23059 503.0764L31.23059 503.0764L31.23059 510.6705L31.23059 510.6705L34.37717 510.6705L34.37717 510.6705L34.37717 512.1594L34.37717 512.1594L35.53306 512.1166L35.53306 512.1166L35.53306 510.6705L35.53306 510.6705L38.70819 510.6705z" stroke="none" fill="#000000" fill-rule="winding" /><path transform="matrix(1 0 0 -1 0 841)" d="M46.45692 465.5693C 46.7122 465.4583 46.94846 465.3505 47.16568 465.2458C 47.3829 465.1412 47.60568 465.0278 47.834 464.9057C 48.06391 464.7852 48.2851 464.6639 48.49757 464.5418C 48.71162 464.4213 48.93361 464.2913 49.16351 464.1518L49.16351 464.1518L48.75919 463.141C 48.51501 463.3138 48.28907 463.4597 48.08135 463.5786C 47.87364 463.6975 47.65325 463.8204 47.42017 463.9472C 47.18708 464.0725 46.95876 464.193 46.7352 464.3087C 46.51321 464.4245 46.27141 464.5482 46.00979 464.6798L46.00979 464.6798L46.45692 465.5693zM43.76461 464.7226C 43.47762 464.6497 43.193 464.5854 42.91077 464.5299C 42.63012 464.4744 42.33838 464.4174 42.03553 464.3587C 41.73427 464.3 41.43856 464.2437 41.1484 464.1898C 40.85983 464.1343 40.54667 464.0725 40.20894 464.0043L40.20894 464.0043L40.05197 465.096C 40.3897 465.1483 40.70364 465.2006 40.9938 465.253C 41.28397 465.3053 41.58126 465.36 41.88569 465.4171C 42.19012 465.4757 42.48108 465.5352 42.75856 465.5955C 43.03762 465.6573 43.34602 465.7294 43.68374 465.8119L43.68374 465.8119L43.73607 465.2244L43.73607 465.2244L43.76461 464.7226zM46.59725 466.2899C 46.537 465.8919 46.449 465.5447 46.33325 465.2482C 46.21909 464.9517 46.04071 464.6837 45.79811 464.4443C 45.55552 464.2065 45.23682 463.9901 44.84201 463.795C 44.44879 463.6 43.88591 463.3844 43.15337 463.1481L43.15337 463.1481L42.72288 464.2017C 43.43956 464.4031 43.95963 464.5719 44.28309 464.7083C 44.60655 464.8463 44.84994 464.9882 45.01325 465.134C 45.17657 465.2815 45.29152 465.4496 45.35812 465.6382C 45.4263 465.8269 45.48576 466.0711 45.5365 466.3708C 45.5476 466.4168 45.55473 466.4644 45.5579 466.5135C 45.56266 466.5627 45.56821 466.6094 45.57455 466.6538C 45.58089 466.6966 45.59595 466.806 45.61974 466.982L45.61974 466.982L46.68763 466.856L46.68763 466.856L46.59725 466.2899zM47.29649 464.9105L47.29649 466.8298L47.29649 466.8298L44.82536 466.8298L44.82536 466.8298L44.82536 464.8891L44.82536 464.8891L43.75985 464.8891L43.75985 464.8891L43.75985 467.8477L43.75985 467.8477L48.37151 467.8477L48.37151 467.8477L48.37151 464.9105L48.37151 464.9105L47.29649 464.9105zM40.99142 468.4756C 40.95179 468.4709 40.90105 468.463 40.83921 468.4519C 40.77737 468.4424 40.65528 468.4186 40.47294 468.3805L40.47294 468.3805L40.2137 469.4127C 40.39762 469.4761 40.50148 469.5182 40.52526 469.5388C 40.54905 469.5594 40.57838 469.5991 40.61327 469.6577C 40.67827 469.7608 40.7631 469.9082 40.86775 470.1001C 40.9724 470.2919 41.0826 470.5084 41.19835 470.7494C 41.31409 470.9904 41.43142 471.2425 41.55034 471.5057C 41.67085 471.7705 41.80324 472.0821 41.94753 472.4404L41.94753 472.4404L42.93218 472.0765C 42.78789 471.7245 42.65629 471.4169 42.53737 471.1537C 42.42004 470.8921 42.29874 470.6384 42.17348 470.3926C 42.0498 470.1469 41.92929 469.9193 41.81197 469.71C 41.69622 469.5023 41.56224 469.3889 41.41002 469.3699C 41.40685 469.4841 41.44807 469.5428 41.5337 469.5459C 41.6209 469.5491 41.71762 469.5522 41.82386 469.5554C 41.93167 469.5586 42.0387 469.5618 42.14494 469.5649C 42.25117 469.5697 42.31142 469.5721 42.32569 469.5721C 42.39388 469.7021 42.47632 469.8583 42.57304 470.0406C 42.66977 470.2245 42.7871 470.4632 42.92504 470.7565L42.92504 470.7565L43.8098 470.2975C 43.62904 469.9169 43.45621 469.5745 43.29131 469.27C 43.12799 468.9656 42.9631 468.6659 42.79661 468.371C 42.63012 468.0777 42.46998 467.8034 42.31618 467.5481C 42.16396 467.2928 42.01571 467.1454 41.87142 467.1057C 41.86032 467.204 41.92295 467.2619 42.05931 467.2793C 42.19726 467.2984 42.34155 467.319 42.49218 467.3412C 42.64281 467.365 42.78947 467.3848 42.93218 467.4006C 43.07488 467.4165 43.26594 467.4435 43.50536 467.4815L43.50536 467.4815L43.52439 466.416C 43.34522 466.3811 43.16447 466.3518 42.98212 466.328C 42.80137 466.3058 42.60872 466.2796 42.40418 466.2495C 42.20123 466.2209 42.0062 466.1932 41.8191 466.1663C 41.632 466.1409 41.5004 466.1258 41.42429 466.1211C 41.37514 466.1131 41.29427 466.1012 41.18169 466.0854C 41.07071 466.0695 40.90739 466.0378 40.69175 465.9903L40.69175 465.9903L40.49672 467.0629C 40.75676 467.1438 40.92483 467.2373 41.00094 467.3435C 41.10242 467.4831 41.23323 467.6837 41.39337 467.9453C 41.5551 468.2085 41.73427 468.4368 41.93088 468.6302C 41.93405 468.5526 41.87856 468.5121 41.7644 468.5089C 41.65023 468.5058 41.54242 468.501 41.44094 468.4947C 41.34105 468.4883 41.24988 468.4836 41.16743 468.4804C 41.08497 468.4772 41.02631 468.4756 40.99142 468.4756zM49.18967 469.1035L49.18967 468.1332L49.18967 468.1332L43.00829 468.1332L43.00829 468.1332L43.00829 469.1035L43.00829 469.1035L45.48417 469.1035L45.48417 469.1035L45.48417 469.3509L45.48417 469.3509L43.51488 469.3509L43.51488 469.3509L43.51488 470.3022L43.51488 470.3022L45.48417 470.3022L45.48417 470.3022L45.48417 470.5401L45.48417 470.5401L43.24374 470.5401L43.24374 470.5401L43.24374 471.489L43.24374 471.489L45.48417 471.489L45.48417 471.489L45.48417 472.4689L45.48417 472.4689L46.60914 472.4404L46.60914 472.4404L46.60914 471.489L46.60914 471.489L48.89713 471.489L48.89713 471.489L48.89713 470.5401L48.89713 470.5401L46.60914 470.5401L46.60914 470.5401L46.60914 470.3022L46.60914 470.3022L48.65454 470.3022L48.65454 470.3022L48.65454 469.3509L48.65454 469.3509L46.60914 469.3509L46.60914 469.3509L46.60914 469.1035L46.60914 469.1035L49.18967 469.1035zM32.37458 466.0402C 32.24298 466.5048 32.11851 466.9146 32.00118 467.2698C 31.88543 467.625 31.76096 467.9778 31.62778 468.3282C 31.49617 468.6786 31.3614 469.0108 31.22345 469.3247C 31.08551 469.6403 30.92219 469.982 30.73351 470.3498L30.73351 470.3498L31.80377 470.7851C 31.9655 470.4632 32.1193 470.1366 32.26518 469.8052C 32.41264 469.4754 32.5593 469.1258 32.70518 468.7563C 32.85264 468.3868 32.99217 468.0206 33.12377 467.6575C 33.25537 467.2944 33.37667 466.9218 33.48766 466.5397L33.48766 466.5397L32.37458 466.0402zM39.13868 470.5044C 39.00707 470.0715 38.88578 469.6807 38.77478 469.3319C 38.66538 468.983 38.54646 468.6287 38.41803 468.2687C 38.29118 467.9088 38.1572 467.5536 38.01608 467.2032C 37.87497 466.8528 37.70214 466.4627 37.4976 466.0331L37.4976 466.0331L36.39165 466.4659C 36.6073 466.8813 36.78725 467.2571 36.93155 467.5933C 37.07742 467.9294 37.21378 468.2743 37.34063 468.6279C 37.46906 468.983 37.58639 469.3327 37.69262 469.6767C 37.80044 470.0208 37.91064 470.4132 38.02322 470.854L38.02322 470.854L39.13868 470.5044zM39.46927 464.8748L39.46927 463.7903L39.46927 463.7903L30.50994 463.7903L30.50994 463.7903L30.50994 464.8748L30.50994 464.8748L33.37588 464.8748L33.37588 464.8748L33.37588 472.3738L33.37588 472.3738L34.5389 472.331L34.5389 472.331L34.5389 464.8748L34.5389 464.8748L35.44982 464.8748L35.44982 464.8748L35.44982 472.3928L35.44982 472.3928L36.64376 472.35L36.64376 472.35L36.64376 464.8748L36.64376 464.8748L39.46927 464.8748z" stroke="none" fill="#000000" fill-rule="winding" /><path transform="matrix(1 0 0 -1 0 841)" d="M46.56395 329.1223L46.56395 330.0522L46.56395 330.0522L42.83942 330.0522L42.83942 330.0522L42.83942 329.1223L42.83942 329.1223L46.56395 329.1223zM46.32136 331.1296C 46.31501 331.1328 46.10413 331.2834 45.68871 331.5815C 45.27329 331.8795 44.94666 332.1499 44.70882 332.3925C 44.4472 332.1309 44.11026 331.8558 43.69801 331.5672C 43.28735 331.2787 43.07647 331.132 43.06536 331.1272L43.06536 331.1272L46.32136 331.1296zM48.93281 329.9356C 48.57605 330.0688 48.28431 330.183 48.05757 330.2781C 47.83083 330.3749 47.70874 330.4272 47.6913 330.4351L47.6913 330.4351L47.6913 327.6476L47.6913 327.6476L46.56395 327.6476L46.56395 327.6476L46.56395 328.0662L46.56395 328.0662L42.83942 328.0662L42.83942 328.0662L42.83942 327.6476L42.83942 327.6476L41.71445 327.6476L41.71445 327.6476L41.71445 330.4684C 41.70335 330.4637 41.58681 330.4145 41.36483 330.321C 41.14443 330.229 40.85903 330.1164 40.50862 329.9832L40.50862 329.9832L39.97824 330.9583C 40.60296 331.1867 41.11351 331.3888 41.50991 331.5648C 41.90631 331.7408 42.26782 331.924 42.59445 332.1142C 42.92266 332.3045 43.21917 332.5051 43.48396 332.716C 43.74875 332.9284 44.01513 333.1758 44.28309 333.458L44.28309 333.458L45.14169 333.458C 45.64907 332.9221 46.22464 332.4615 46.86838 332.0762C 47.51371 331.6925 48.36993 331.3159 49.43702 330.9465L49.43702 330.9465L48.93281 329.9356zM44.24979 333.9646C 43.985 333.7648 43.73845 333.5936 43.51012 333.4509C 43.2818 333.3082 43.04158 333.1678 42.78947 333.0299C 42.53737 332.892 42.28288 332.7572 42.02602 332.6256C 41.77074 332.4955 41.47503 332.3537 41.13889 332.1999L41.13889 332.1999L40.65132 333.2035C 40.96843 333.3177 41.24591 333.4319 41.48375 333.546C 41.72317 333.6618 41.96814 333.7886 42.21867 333.9266C 42.46918 334.0645 42.71099 334.2032 42.94407 334.3428C 43.17715 334.4839 43.42767 334.6551 43.69564 334.8565L43.69564 334.8565L44.24979 333.9646zM45.59357 334.8304C 45.92655 334.6813 46.21671 334.5465 46.46406 334.426C 46.713 334.3055 46.96193 334.181 47.21087 334.0526C 47.4598 333.9258 47.70557 333.7934 47.94817 333.6554C 48.19076 333.5191 48.47616 333.3534 48.80438 333.1584L48.80438 333.1584L48.29303 332.1214C 47.7349 332.5368 47.20691 332.8769 46.70903 333.1417C 46.21275 333.4081 45.66889 333.6761 45.07747 333.9456L45.07747 333.9456L45.59357 334.8304zM41.83575 333.6673L40.73932 333.6673L40.73932 333.6673L40.73932 335.8245L40.73932 335.8245L44.08569 335.8197C 44.08252 335.8166 44.05318 335.8998 43.99769 336.0695C 43.94378 336.2391 43.8645 336.4524 43.75985 336.7093L43.75985 336.7093L44.88244 336.9233C 44.97758 336.7029 45.06161 336.4865 45.13455 336.274C 45.20907 336.0616 45.25902 335.9117 45.28439 335.8245L45.28439 335.8245L48.65454 335.8245L48.65454 335.8245L48.65454 333.6483L48.65454 333.6483L47.5486 333.6483L47.5486 333.6483L47.5486 334.7685L47.5486 334.7685L41.83575 334.7685L41.83575 334.7685L41.83575 333.6673zM38.70819 335.3179L38.70819 329.1746C 38.70819 328.9225 38.68441 328.71 38.63684 328.5372C 38.59085 328.3643 38.49889 328.224 38.36095 328.1162C 38.22459 328.0068 38.05255 327.9307 37.84484 327.8879C 37.63871 327.845 37.38423 327.8046 37.08138 327.7666L37.08138 327.7666L36.4416 327.6857L36.4416 327.6857L36.0349 328.8226L36.0349 328.8226L36.91965 328.9082C 37.09882 328.9256 37.2336 328.9438 37.32397 328.9629C 37.41435 328.9819 37.47144 329.0017 37.49522 329.0223C 37.519 329.0446 37.53644 329.0834 37.54754 329.1389C 37.55864 329.1944 37.56419 329.2871 37.56419 329.4172L37.56419 329.4172L37.56419 334.2025L37.56419 334.2025L35.52831 334.2025C 35.52514 334.1026 35.51324 333.948 35.49263 333.7387C 35.47202 333.531 35.44744 333.3653 35.4189 333.2416C 35.54099 333.1369 35.71699 332.976 35.9469 332.7588C 36.17681 332.5431 36.40434 332.3188 36.62949 332.0857C 36.85464 331.8542 37.06791 331.6243 37.26927 331.396C 37.47064 331.1676 37.66884 330.9219 37.86386 330.6587L37.86386 330.6587L37.08614 329.674C 36.87843 329.9943 36.69133 330.2583 36.52484 330.466C 36.35994 330.6737 36.17919 330.8846 35.98257 331.0987C 35.78755 331.3143 35.58855 331.5244 35.3856 331.7289C 35.18423 331.9351 35.06293 332.0572 35.02171 332.0952C 34.90121 331.8146 34.65941 331.4666 34.29631 331.0511C 33.9348 330.6357 33.40918 330.1656 32.71945 329.6407L32.71945 329.6407L31.99642 330.5873C 32.55138 330.9996 32.96997 331.35 33.2522 331.6386C 33.53602 331.9287 33.7588 332.2165 33.92052 332.5019C 34.08384 332.7873 34.1988 333.0822 34.26539 333.3867C 34.33357 333.6911 34.37004 333.963 34.37479 334.2025L34.37479 334.2025L32.36745 334.2025L32.36745 334.2025L32.36745 327.7238L32.36745 327.7238L31.23059 327.7238L31.23059 327.7238L31.23059 335.3179L31.23059 335.3179L34.37717 335.3179L34.37717 335.3179L34.37717 336.8068L34.37717 336.8068L35.53306 336.7639L35.53306 336.7639L35.53306 335.3179L35.53306 335.3179L38.70819 335.3179z" stroke="none" fill="#000000" fill-rule="winding" /><path transform="matrix(1 0 0 -1 0 841)" d="M46.45692 290.2167C 46.7122 290.1057 46.94846 289.9979 47.16568 289.8932C 47.3829 289.7886 47.60568 289.6752 47.834 289.5531C 48.06391 289.4326 48.2851 289.3113 48.49757 289.1892C 48.71162 289.0687 48.93361 288.9387 49.16351 288.7991L49.16351 288.7991L48.75919 287.7883C 48.51501 287.9612 48.28907 288.1071 48.08135 288.226C 47.87364 288.3448 47.65325 288.4678 47.42017 288.5946C 47.18708 288.7198 46.95876 288.8403 46.7352 288.9561C 46.51321 289.0719 46.27141 289.1956 46.00979 289.3271L46.00979 289.3271L46.45692 290.2167zM43.76461 289.3699C 43.47762 289.297 43.193 289.2328 42.91077 289.1773C 42.63012 289.1218 42.33838 289.0648 42.03553 289.006C 41.73427 288.9474 41.43856 288.8911 41.1484 288.8372C 40.85983 288.7817 40.54667 288.7198 40.20894 288.6517L40.20894 288.6517L40.05197 289.7433C 40.3897 289.7957 40.70364 289.848 40.9938 289.9003C 41.28397 289.9526 41.58126 290.0073 41.88569 290.0645C 42.19012 290.1231 42.48108 290.1826 42.75856 290.2428C 43.03762 290.3046 43.34602 290.3768 43.68374 290.4592L43.68374 290.4592L43.73607 289.8718L43.73607 289.8718L43.76461 289.3699zM46.59725 290.9373C 46.537 290.5393 46.449 290.1921 46.33325 289.8956C 46.21909 289.5991 46.04071 289.3311 45.79811 289.0917C 45.55552 288.8538 45.23682 288.6374 44.84201 288.4424C 44.44879 288.2474 43.88591 288.0317 43.15337 287.7955L43.15337 287.7955L42.72288 288.8491C 43.43956 289.0505 43.95963 289.2194 44.28309 289.3557C 44.60655 289.4937 44.84994 289.6356 45.01325 289.7814C 45.17657 289.9289 45.29152 290.097 45.35812 290.2856C 45.4263 290.4743 45.48576 290.7185 45.5365 291.0182C 45.5476 291.0641 45.55473 291.1117 45.5579 291.1609C 45.56266 291.21 45.56821 291.2568 45.57455 291.3012C 45.58089 291.344 45.59595 291.4534 45.61974 291.6294L45.61974 291.6294L46.68763 291.5034L46.68763 291.5034L46.59725 290.9373zM47.29649 289.5579L47.29649 291.4772L47.29649 291.4772L44.82536 291.4772L44.82536 291.4772L44.82536 289.5364L44.82536 289.5364L43.75985 289.5364L43.75985 289.5364L43.75985 292.4951L43.75985 292.4951L48.37151 292.4951L48.37151 292.4951L48.37151 289.5579L48.37151 289.5579L47.29649 289.5579zM40.99142 293.123C 40.95179 293.1183 40.90105 293.1104 40.83921 293.0992C 40.77737 293.0897 40.65528 293.0659 40.47294 293.0279L40.47294 293.0279L40.2137 294.0601C 40.39762 294.1235 40.50148 294.1655 40.52526 294.1862C 40.54905 294.2068 40.57838 294.2464 40.61327 294.3051C 40.67827 294.4081 40.7631 294.5556 40.86775 294.7474C 40.9724 294.9393 41.0826 295.1558 41.19835 295.3967C 41.31409 295.6378 41.43142 295.8898 41.55034 296.1531C 41.67085 296.4178 41.80324 296.7294 41.94753 297.0878L41.94753 297.0878L42.93218 296.7239C 42.78789 296.3719 42.65629 296.0643 42.53737 295.8011C 42.42004 295.5394 42.29874 295.2858 42.17348 295.04C 42.0498 294.7943 41.92929 294.5667 41.81197 294.3574C 41.69622 294.1497 41.56224 294.0363 41.41002 294.0173C 41.40685 294.1315 41.44807 294.1901 41.5337 294.1933C 41.6209 294.1965 41.71762 294.1996 41.82386 294.2028C 41.93167 294.2059 42.0387 294.2092 42.14494 294.2123C 42.25117 294.2171 42.31142 294.2194 42.32569 294.2194C 42.39388 294.3495 42.47632 294.5056 42.57304 294.688C 42.66977 294.8719 42.7871 295.1105 42.92504 295.4039L42.92504 295.4039L43.8098 294.9449C 43.62904 294.5643 43.45621 294.2218 43.29131 293.9174C 43.12799 293.613 42.9631 293.3133 42.79661 293.0184C 42.63012 292.725 42.46998 292.4507 42.31618 292.1954C 42.16396 291.9402 42.01571 291.7927 41.87142 291.7531C 41.86032 291.8514 41.92295 291.9093 42.05931 291.9267C 42.19726 291.9457 42.34155 291.9664 42.49218 291.9885C 42.64281 292.0123 42.78947 292.0321 42.93218 292.048C 43.07488 292.0638 43.26594 292.0908 43.50536 292.1288L43.50536 292.1288L43.52439 291.0634C 43.34522 291.0284 43.16447 290.9991 42.98212 290.9753C 42.80137 290.9532 42.60872 290.927 42.40418 290.8969C 42.20123 290.8683 42.0062 290.8406 41.8191 290.8136C 41.632 290.7882 41.5004 290.7732 41.42429 290.7684C 41.37514 290.7605 41.29427 290.7487 41.18169 290.7328C 41.07071 290.7169 40.90739 290.6852 40.69175 290.6376L40.69175 290.6376L40.49672 291.7103C 40.75676 291.7911 40.92483 291.8846 41.00094 291.9909C 41.10242 292.1305 41.23323 292.331 41.39337 292.5927C 41.5551 292.8559 41.73427 293.0842 41.93088 293.2776C 41.93405 293.1999 41.87856 293.1595 41.7644 293.1563C 41.65023 293.1531 41.54242 293.1484 41.44094 293.142C 41.34105 293.1357 41.24988 293.1309 41.16743 293.1278C 41.08497 293.1246 41.02631 293.123 40.99142 293.123zM49.18967 293.7509L49.18967 292.7805L49.18967 292.7805L43.00829 292.7805L43.00829 292.7805L43.00829 293.7509L43.00829 293.7509L45.48417 293.7509L45.48417 293.7509L45.48417 293.9983L45.48417 293.9983L43.51488 293.9983L43.51488 293.9983L43.51488 294.9496L43.51488 294.9496L45.48417 294.9496L45.48417 294.9496L45.48417 295.1874L45.48417 295.1874L43.24374 295.1874L43.24374 295.1874L43.24374 296.1364L43.24374 296.1364L45.48417 296.1364L45.48417 296.1364L45.48417 297.1163L45.48417 297.1163L46.60914 297.0878L46.60914 297.0878L46.60914 296.1364L46.60914 296.1364L48.89713 296.1364L48.89713 296.1364L48.89713 295.1874L48.89713 295.1874L46.60914 295.1874L46.60914 295.1874L46.60914 294.9496L46.60914 294.9496L48.65454 294.9496L48.65454 294.9496L48.65454 293.9983L48.65454 293.9983L46.60914 293.9983L46.60914 293.9983L46.60914 293.7509L46.60914 293.7509L49.18967 293.7509zM32.37458 290.6876C 32.24298 291.1521 32.11851 291.562 32.00118 291.9172C 31.88543 292.2723 31.76096 292.6252 31.62778 292.9756C 31.49617 293.326 31.3614 293.6581 31.22345 293.9721C 31.08551 294.2877 30.92219 294.6293 30.73351 294.9972L30.73351 294.9972L31.80377 295.4324C 31.9655 295.1105 32.1193 294.7839 32.26518 294.4525C 32.41264 294.1227 32.5593 293.7731 32.70518 293.4037C 32.85264 293.0342 32.99217 292.668 33.12377 292.3049C 33.25537 291.9418 33.37667 291.5692 33.48766 291.187L33.48766 291.187L32.37458 290.6876zM39.13868 295.1518C 39.00707 294.7189 38.88578 294.3281 38.77478 293.9792C 38.66538 293.6304 38.54646 293.276 38.41803 292.9161C 38.29118 292.5562 38.1572 292.201 38.01608 291.8506C 37.87497 291.5002 37.70214 291.1102 37.4976 290.6804L37.4976 290.6804L36.39165 291.1133C 36.6073 291.5287 36.78725 291.9045 36.93155 292.2407C 37.07742 292.5768 37.21378 292.9216 37.34063 293.2752C 37.46906 293.6304 37.58639 293.98 37.69262 294.3241C 37.80044 294.6682 37.91064 295.0606 38.02322 295.5014L38.02322 295.5014L39.13868 295.1518zM39.46927 289.5222L39.46927 288.4376L39.46927 288.4376L30.50994 288.4376L30.50994 288.4376L30.50994 289.5222L30.50994 289.5222L33.37588 289.5222L33.37588 289.5222L33.37588 297.0212L33.37588 297.0212L34.5389 296.9784L34.5389 296.9784L34.5389 289.5222L34.5389 289.5222L35.44982 289.5222L35.44982 289.5222L35.44982 297.0402L35.44982 297.0402L36.64376 296.9974L36.64376 296.9974L36.64376 289.5222L36.64376 289.5222L39.46927 289.5222z" stroke="none" fill="#000000" fill-rule="winding" /><path transform="matrix(1 0 0 -1 0 841)" d="M46.56395 212.2205L46.56395 213.1505L46.56395 213.1505L42.83942 213.1505L42.83942 213.1505L42.83942 212.2205L42.83942 212.2205L46.56395 212.2205zM46.32136 214.2278C 46.31501 214.231 46.10413 214.3817 45.68871 214.6797C 45.27329 214.9778 44.94666 215.2482 44.70882 215.4908C 44.4472 215.2291 44.11026 214.954 43.69801 214.6655C 43.28735 214.3769 43.07647 214.2302 43.06536 214.2255L43.06536 214.2255L46.32136 214.2278zM48.93281 213.0339C 48.57605 213.1671 48.28431 213.2813 48.05757 213.3764C 47.83083 213.4731 47.70874 213.5255 47.6913 213.5333L47.6913 213.5333L47.6913 210.7459L47.6913 210.7459L46.56395 210.7459L46.56395 210.7459L46.56395 211.1645L46.56395 211.1645L42.83942 211.1645L42.83942 211.1645L42.83942 210.7459L42.83942 210.7459L41.71445 210.7459L41.71445 210.7459L41.71445 213.5667C 41.70335 213.5619 41.58681 213.5128 41.36483 213.4192C 41.14443 213.3272 40.85903 213.2147 40.50862 213.0815L40.50862 213.0815L39.97824 214.0566C 40.60296 214.2849 41.11351 214.4871 41.50991 214.6631C 41.90631 214.8391 42.26782 215.0222 42.59445 215.2125C 42.92266 215.4028 43.21917 215.6033 43.48396 215.8142C 43.74875 216.0267 44.01513 216.274 44.28309 216.5563L44.28309 216.5563L45.14169 216.5563C 45.64907 216.0203 46.22464 215.5598 46.86838 215.1744C 47.51371 214.7907 48.36993 214.4141 49.43702 214.0447L49.43702 214.0447L48.93281 213.0339zM44.24979 217.0629C 43.985 216.8631 43.73845 216.6918 43.51012 216.5491C 43.2818 216.4064 43.04158 216.2661 42.78947 216.1282C 42.53737 215.9902 42.28288 215.8554 42.02602 215.7238C 41.77074 215.5938 41.47503 215.4519 41.13889 215.2981L41.13889 215.2981L40.65132 216.3018C 40.96843 216.416 41.24591 216.5301 41.48375 216.6443C 41.72317 216.76 41.96814 216.8868 42.21867 217.0248C 42.46918 217.1628 42.71099 217.3015 42.94407 217.441C 43.17715 217.5821 43.42767 217.7534 43.69564 217.9548L43.69564 217.9548L44.24979 217.0629zM45.59357 217.9286C 45.92655 217.7795 46.21671 217.6448 46.46406 217.5243C 46.713 217.4037 46.96193 217.2793 47.21087 217.1509C 47.4598 217.024 47.70557 216.8916 47.94817 216.7537C 48.19076 216.6173 48.47616 216.4516 48.80438 216.2566L48.80438 216.2566L48.29303 215.2196C 47.7349 215.6351 47.20691 215.9752 46.70903 216.2399C 46.21275 216.5063 45.66889 216.7743 45.07747 217.0438L45.07747 217.0438L45.59357 217.9286zM41.83575 216.7656L40.73932 216.7656L40.73932 216.7656L40.73932 218.9227L40.73932 218.9227L44.08569 218.918C 44.08252 218.9149 44.05318 218.998 43.99769 219.1677C 43.94378 219.3373 43.8645 219.5507 43.75985 219.8075L43.75985 219.8075L44.88244 220.0215C 44.97758 219.8011 45.06161 219.5847 45.13455 219.3723C 45.20907 219.1598 45.25902 219.0099 45.28439 218.9227L45.28439 218.9227L48.65454 218.9227L48.65454 218.9227L48.65454 216.7465L48.65454 216.7465L47.5486 216.7465L47.5486 216.7465L47.5486 217.8668L47.5486 217.8668L41.83575 217.8668L41.83575 217.8668L41.83575 216.7656zM38.70819 218.4161L38.70819 212.2728C 38.70819 212.0207 38.68441 211.8082 38.63684 211.6354C 38.59085 211.4626 38.49889 211.3223 38.36095 211.2144C 38.22459 211.105 38.05255 211.0289 37.84484 210.9861C 37.63871 210.9433 37.38423 210.9029 37.08138 210.8648L37.08138 210.8648L36.4416 210.7839L36.4416 210.7839L36.0349 211.9208L36.0349 211.9208L36.91965 212.0065C 37.09882 212.0239 37.2336 212.0421 37.32397 212.0612C 37.41435 212.0802 37.47144 212.1 37.49522 212.1206C 37.519 212.1428 37.53644 212.1816 37.54754 212.2371C 37.55864 212.2926 37.56419 212.3854 37.56419 212.5154L37.56419 212.5154L37.56419 217.3007L37.56419 217.3007L35.52831 217.3007C 35.52514 217.2008 35.51324 217.0462 35.49263 216.8369C 35.47202 216.6292 35.44744 216.4635 35.4189 216.3398C 35.54099 216.2352 35.71699 216.0742 35.9469 215.857C 36.17681 215.6414 36.40434 215.4171 36.62949 215.184C 36.85464 214.9525 37.06791 214.7225 37.26927 214.4942C 37.47064 214.2659 37.66884 214.0201 37.86386 213.7569L37.86386 213.7569L37.08614 212.7723C 36.87843 213.0926 36.69133 213.3566 36.52484 213.5643C 36.35994 213.772 36.17919 213.9828 35.98257 214.1969C 35.78755 214.4126 35.58855 214.6226 35.3856 214.8272C 35.18423 215.0333 35.06293 215.1554 35.02171 215.1935C 34.90121 214.9128 34.65941 214.5648 34.29631 214.1494C 33.9348 213.7339 33.40918 213.2638 32.71945 212.739L32.71945 212.739L31.99642 213.6855C 32.55138 214.0978 32.96997 214.4482 33.2522 214.7368C 33.53602 215.027 33.7588 215.3148 33.92052 215.6002C 34.08384 215.8856 34.1988 216.1805 34.26539 216.4849C 34.33357 216.7894 34.37004 217.0613 34.37479 217.3007L34.37479 217.3007L32.36745 217.3007L32.36745 217.3007L32.36745 210.822L32.36745 210.822L31.23059 210.822L31.23059 210.822L31.23059 218.4161L31.23059 218.4161L34.37717 218.4161L34.37717 218.4161L34.37717 219.905L34.37717 219.905L35.53306 219.8622L35.53306 219.8622L35.53306 218.4161L35.53306 218.4161L38.70819 218.4161z" stroke="none" fill="#000000" fill-rule="winding" /><path transform="matrix(1 0 0 -1 0 841)" d="M46.45692 140.3426C 46.7122 140.2316 46.94846 140.1238 47.16568 140.0192C 47.3829 139.9145 47.60568 139.8011 47.834 139.679C 48.06391 139.5585 48.2851 139.4372 48.49757 139.3151C 48.71162 139.1946 48.93361 139.0646 49.16351 138.9251L49.16351 138.9251L48.75919 137.9143C 48.51501 138.0872 48.28907 138.233 48.08135 138.3519C 47.87364 138.4708 47.65325 138.5938 47.42017 138.7206C 47.18708 138.8458 46.95876 138.9663 46.7352 139.0821C 46.51321 139.1978 46.27141 139.3215 46.00979 139.4531L46.00979 139.4531L46.45692 140.3426zM43.76461 139.4959C 43.47762 139.423 43.193 139.3588 42.91077 139.3033C 42.63012 139.2478 42.33838 139.1907 42.03553 139.132C 41.73427 139.0734 41.43856 139.0171 41.1484 138.9631C 40.85983 138.9077 40.54667 138.8458 40.20894 138.7776L40.20894 138.7776L40.05197 139.8693C 40.3897 139.9216 40.70364 139.9739 40.9938 140.0263C 41.28397 140.0786 41.58126 140.1333 41.88569 140.1904C 42.19012 140.2491 42.48108 140.3085 42.75856 140.3688C 43.03762 140.4306 43.34602 140.5027 43.68374 140.5852L43.68374 140.5852L43.73607 139.9977L43.73607 139.9977L43.76461 139.4959zM46.59725 141.0632C 46.537 140.6653 46.449 140.3181 46.33325 140.0215C 46.21909 139.725 46.04071 139.4571 45.79811 139.2177C 45.55552 138.9798 45.23682 138.7634 44.84201 138.5684C 44.44879 138.3733 43.88591 138.1577 43.15337 137.9214L43.15337 137.9214L42.72288 138.975C 43.43956 139.1765 43.95963 139.3453 44.28309 139.4816C 44.60655 139.6196 44.84994 139.7615 45.01325 139.9073C 45.17657 140.0548 45.29152 140.2229 45.35812 140.4116C 45.4263 140.6002 45.48576 140.8444 45.5365 141.1441C 45.5476 141.1901 45.55473 141.2377 45.5579 141.2868C 45.56266 141.336 45.56821 141.3828 45.57455 141.4271C 45.58089 141.47 45.59595 141.5793 45.61974 141.7554L45.61974 141.7554L46.68763 141.6293L46.68763 141.6293L46.59725 141.0632zM47.29649 139.6838L47.29649 141.6031L47.29649 141.6031L44.82536 141.6031L44.82536 141.6031L44.82536 139.6624L44.82536 139.6624L43.75985 139.6624L43.75985 139.6624L43.75985 142.6211L43.75985 142.6211L48.37151 142.6211L48.37151 142.6211L48.37151 139.6838L48.37151 139.6838L47.29649 139.6838zM40.99142 143.249C 40.95179 143.2442 40.90105 143.2363 40.83921 143.2252C 40.77737 143.2157 40.65528 143.1919 40.47294 143.1539L40.47294 143.1539L40.2137 144.186C 40.39762 144.2495 40.50148 144.2915 40.52526 144.3121C 40.54905 144.3328 40.57838 144.3724 40.61327 144.431C 40.67827 144.5341 40.7631 144.6815 40.86775 144.8734C 40.9724 145.0653 41.0826 145.2817 41.19835 145.5227C 41.31409 145.7637 41.43142 146.0158 41.55034 146.2791C 41.67085 146.5438 41.80324 146.8553 41.94753 147.2137L41.94753 147.2137L42.93218 146.8499C 42.78789 146.4979 42.65629 146.1902 42.53737 145.927C 42.42004 145.6654 42.29874 145.4117 42.17348 145.166C 42.0498 144.9202 41.92929 144.6926 41.81197 144.4833C 41.69622 144.2756 41.56224 144.1623 41.41002 144.1432C 41.40685 144.2574 41.44807 144.3161 41.5337 144.3193C 41.6209 144.3224 41.71762 144.3256 41.82386 144.3287C 41.93167 144.3319 42.0387 144.3351 42.14494 144.3383C 42.25117 144.343 42.31142 144.3454 42.32569 144.3454C 42.39388 144.4755 42.47632 144.6316 42.57304 144.814C 42.66977 144.9979 42.7871 145.2365 42.92504 145.5298L42.92504 145.5298L43.8098 145.0708C 43.62904 144.6902 43.45621 144.3478 43.29131 144.0433C 43.12799 143.739 42.9631 143.4393 42.79661 143.1443C 42.63012 142.851 42.46998 142.5767 42.31618 142.3214C 42.16396 142.0662 42.01571 141.9187 41.87142 141.879C 41.86032 141.9774 41.92295 142.0352 42.05931 142.0527C 42.19726 142.0717 42.34155 142.0923 42.49218 142.1145C 42.64281 142.1383 42.78947 142.1581 42.93218 142.174C 43.07488 142.1898 43.26594 142.2167 43.50536 142.2548L43.50536 142.2548L43.52439 141.1893C 43.34522 141.1544 43.16447 141.1251 42.98212 141.1013C 42.80137 141.0791 42.60872 141.053 42.40418 141.0228C 42.20123 140.9943 42.0062 140.9665 41.8191 140.9396C 41.632 140.9142 41.5004 140.8992 41.42429 140.8944C 41.37514 140.8865 41.29427 140.8746 41.18169 140.8587C 41.07071 140.8428 40.90739 140.8112 40.69175 140.7635L40.69175 140.7635L40.49672 141.8362C 40.75676 141.9171 40.92483 142.0106 41.00094 142.1169C 41.10242 142.2564 41.23323 142.457 41.39337 142.7186C 41.5551 142.9818 41.73427 143.2101 41.93088 143.4036C 41.93405 143.3259 41.87856 143.2855 41.7644 143.2823C 41.65023 143.2791 41.54242 143.2744 41.44094 143.268C 41.34105 143.2617 41.24988 143.2569 41.16743 143.2537C 41.08497 143.2505 41.02631 143.249 40.99142 143.249zM49.18967 143.8769L49.18967 142.9065L49.18967 142.9065L43.00829 142.9065L43.00829 142.9065L43.00829 143.8769L43.00829 143.8769L45.48417 143.8769L45.48417 143.8769L45.48417 144.1242L45.48417 144.1242L43.51488 144.1242L43.51488 144.1242L43.51488 145.0756L43.51488 145.0756L45.48417 145.0756L45.48417 145.0756L45.48417 145.3134L45.48417 145.3134L43.24374 145.3134L43.24374 145.3134L43.24374 146.2624L43.24374 146.2624L45.48417 146.2624L45.48417 146.2624L45.48417 147.2422L45.48417 147.2422L46.60914 147.2137L46.60914 147.2137L46.60914 146.2624L46.60914 146.2624L48.89713 146.2624L48.89713 146.2624L48.89713 145.3134L48.89713 145.3134L46.60914 145.3134L46.60914 145.3134L46.60914 145.0756L46.60914 145.0756L48.65454 145.0756L48.65454 145.0756L48.65454 144.1242L48.65454 144.1242L46.60914 144.1242L46.60914 144.1242L46.60914 143.8769L46.60914 143.8769L49.18967 143.8769zM32.37458 140.8135C 32.24298 141.2781 32.11851 141.688 32.00118 142.0432C 31.88543 142.3983 31.76096 142.7511 31.62778 143.1015C 31.49617 143.4519 31.3614 143.7841 31.22345 144.0981C 31.08551 144.4136 30.92219 144.7552 30.73351 145.1231L30.73351 145.1231L31.80377 145.5583C 31.9655 145.2365 32.1193 144.9099 32.26518 144.5785C 32.41264 144.2487 32.5593 143.899 32.70518 143.5296C 32.85264 143.1602 32.99217 142.7939 33.12377 142.4308C 33.25537 142.0677 33.37667 141.6951 33.48766 141.313L33.48766 141.313L32.37458 140.8135zM39.13868 145.2777C 39.00707 144.8448 38.88578 144.454 38.77478 144.1052C 38.66538 143.7563 38.54646 143.402 38.41803 143.0421C 38.29118 142.6821 38.1572 142.327 38.01608 141.9766C 37.87497 141.6262 37.70214 141.2361 37.4976 140.8064L37.4976 140.8064L36.39165 141.2393C 36.6073 141.6547 36.78725 142.0305 36.93155 142.3666C 37.07742 142.7028 37.21378 143.0476 37.34063 143.4012C 37.46906 143.7563 37.58639 144.106 37.69262 144.4501C 37.80044 144.7941 37.91064 145.1866 38.02322 145.6274L38.02322 145.6274L39.13868 145.2777zM39.46927 139.6481L39.46927 138.5636L39.46927 138.5636L30.50994 138.5636L30.50994 138.5636L30.50994 139.6481L30.50994 139.6481L33.37588 139.6481L33.37588 139.6481L33.37588 147.1472L33.37588 147.1472L34.5389 147.1043L34.5389 147.1043L34.5389 139.6481L34.5389 139.6481L35.44982 139.6481L35.44982 139.6481L35.44982 147.1661L35.44982 147.1661L36.64376 147.1234L36.64376 147.1234L36.64376 139.6481L36.64376 139.6481L39.46927 139.6481z" stroke="none" fill="#000000" fill-rule="winding" /><g transform="matrix(0.1873425 0 0 0.1873425 81.68135 61.27777)"><g transform="matrix(1 0 0 1 0 0)"><image x="0" y="0" xlink:href="img_02.png" width="64" height="64" /></g></g><g transform="matrix(0.1873425 0 0 0.1873425 166.3602 61.27777)"><g transform="matrix(1 0 0 1 0 0)"><image x="0" y="0" xlink:href="img_03.png" width="64" height="64" /></g></g><path transform="matrix(1 0 0 -1 0 841)" d="M29.97481 698.0409L565.0251 698.0409L565.0251 698.0409L565.0251 697.2915L565.0251 697.2915L29.97481 697.2915z" stroke="none" fill="#E3E4E6" fill-rule="winding" /><path transform="matrix(1 0 0 -1 0 841)" d="M29.97481 698.0409L565.0251 698.0409L565.0251 698.0409L565.0251 697.2915L565.0251 697.2915L29.97481 697.2915z" stroke="none" fill="#E3E4E6" fill-rule="winding" /><path transform="matrix(1 0 0 -1 0 841)" d="M29.97481 553.4125L565.0251 553.4125L565.0251 553.4125L565.0251 552.6631L565.0251 552.6631L29.97481 552.6631z" stroke="none" fill="#E3E4E6" fill-rule="winding" /><path transform="matrix(1 0 0 -1 0 841)" d="M29.97481 553.4125L565.0251 553.4125L565.0251 553.4125L565.0251 552.6631L565.0251 552.6631L29.97481 552.6631z" stroke="none" fill="#E3E4E6" fill-rule="winding" /><path transform="matrix(1 0 0 -1 0 841)" d="M29.97481 705.5346L98.91686 705.5346L98.91686 705.5346L98.91686 690.5472L98.91686 690.5472L29.97481 690.5472z" stroke="none" fill="#FFFFFF" fill-rule="winding" /><path transform="matrix(1 0 0 -1 0 841)" d="M83.83395 699.9432C 83.73297 699.5546 83.64295 699.2352 83.56392 698.9849C 83.48708 698.7346 83.39597 698.491 83.29059 698.2538C 83.17643 698.0123 83.02714 697.8049 82.84273 697.6315C 82.66051 697.4602 82.43218 697.3746 82.15775 697.3746C 81.87016 697.3746 81.60011 697.4899 81.34764 697.7203C 81.09737 697.9509 80.891 698.323 80.72854 698.8367C 80.7 698.9663 80.66926 699.1287 80.63633 699.3241C 80.60339 699.5195 80.57705 699.7292 80.55729 699.9531C 80.53973 700.1793 80.52436 700.4153 80.51118 700.6611C 80.49802 700.9092 80.49143 701.1485 80.49143 701.379L80.49143 701.379L80.49143 701.9487L80.49143 701.9487L79.22028 701.9487C 79.21589 701.7709 79.19503 701.5316 79.15771 701.2308C 79.12258 700.9323 79.08855 700.7259 79.05563 700.6118C 79.25761 700.5173 79.51776 700.3845 79.8361 700.2133C 80.15663 700.0442 80.48814 699.8488 80.83062 699.6271L80.83062 699.6271L80.21481 698.1254C 79.82402 698.4328 79.48264 698.6732 79.19064 698.8466C 78.90085 699.0222 78.66923 699.1562 78.49579 699.2484C 78.39041 699.0618 78.18404 698.817 77.87669 698.514C 77.56933 698.2133 77.27953 698.0233 77.00729 697.9443L77.00729 697.9443L77.32014 698.0826C 77.28062 697.7247 77.25318 697.4734 77.23782 697.3285C 77.22245 697.1858 77.18623 697.1155 77.12914 697.1177L77.12914 697.1177L82.21374 697.2067C 82.183 696.8971 82.15885 696.6227 82.14129 696.3834C 82.12373 696.1462 82.10397 695.8938 82.08201 695.626C 82.06006 695.3603 82.03481 695.1078 82.00627 694.8685C 81.97993 694.6314 81.96236 694.4602 81.95358 694.3548C 81.92284 694.0386 81.86137 693.7675 81.76917 693.5414C 81.67696 693.313 81.52438 693.1254 81.31142 692.9783C 81.09846 692.829 80.82733 692.7159 80.49802 692.639C 80.1709 692.5623 79.76694 692.4996 79.28614 692.4514L79.28614 692.4514L78.27186 692.3525L78.27186 692.3525L77.72849 693.8871L77.72849 693.8871L79.12807 693.9958C 79.42226 694.0222 79.64948 694.0507 79.80975 694.0815C 79.97221 694.1122 80.08857 694.1506 80.15882 694.1967C 80.22908 694.245 80.28287 694.3098 80.32018 694.391C 80.3597 694.4722 80.39044 694.593 80.41239 694.7533C 80.42117 694.8125 80.43105 694.9047 80.44203 695.0299C 80.45521 695.155 80.46838 695.2845 80.48155 695.4185C 80.49692 695.5546 80.51118 695.683 80.52436 695.8038C 80.53973 695.9267 80.60779 695.9816 80.72854 695.9684L80.72854 695.9684L77.01717 695.784C 76.93375 695.3889 76.7702 694.9849 76.5265 694.5721C 76.285 694.1616 75.95459 693.8015 75.53527 693.492C 75.11594 693.1802 74.60221 692.9047 73.99408 692.6654C 73.38815 692.424 72.58353 692.1736 71.58022 691.9146L71.58022 691.9146L70.95452 693.3965C 71.89417 693.6358 72.61317 693.8422 73.11153 694.0156C 73.61208 694.1912 74.02043 694.3789 74.33657 694.5787C 74.65491 694.7807 74.8975 695.0035 75.06435 695.2472C 75.2334 695.4909 75.33109 695.6699 75.35744 695.784L75.35744 695.784L71.93917 695.784L71.93917 695.784L71.93917 697.2067L71.93917 697.2067L75.60442 697.2067L75.60442 697.2067L75.68346 698.0826L75.68346 698.0826L75.94032 697.9608L75.94032 697.9608L75.30145 698.4547C 75.94032 698.8543 76.39478 699.1748 76.66481 699.4163C 76.93704 699.6578 77.0995 699.8236 77.15219 699.9136C 77.1039 699.9355 76.97217 699.9904 76.75702 700.0782C 76.54406 700.1661 76.24878 700.2671 75.87117 700.3812L75.87117 700.3812L76.4771 701.6754C 76.813 701.5723 77.08743 701.4767 77.30038 701.3889C 77.51553 701.3033 77.64836 701.2374 77.69885 701.1913C 77.67251 701.1848 77.67031 701.2912 77.69227 701.5107C 77.71423 701.7325 77.7263 701.8785 77.72849 701.9487L77.72849 701.9487L76.48369 701.9487L76.48369 701.9487L76.48369 703.3845L76.48369 703.3845L77.75154 703.3845L77.75154 703.3845L77.75154 704.0498C 77.75154 704.2342 77.76033 704.5141 77.77789 704.8895L77.77789 704.8895L79.25651 704.85C 79.25651 704.85 79.25651 704.7534 79.25651 704.5602C 79.25651 704.3692 79.25431 704.199 79.24992 704.0498C 79.24553 703.9027 79.24333 703.7446 79.24333 703.5756C 79.24333 703.4065 79.22247 703.322 79.18076 703.322L79.18076 703.322L81.92723 703.3845L81.92723 703.3845L81.92723 701.4581C 81.92723 701.2385 81.93163 701.0168 81.94041 700.7928C 81.94919 700.5711 81.96017 700.3615 81.97334 700.1639C 81.98651 699.9663 82.00407 699.7863 82.02603 699.6238C 82.04798 699.4613 82.06994 699.334 82.09189 699.2418C 82.13361 699.1013 82.15446 699.0003 82.15446 698.9388C 82.15665 698.8795 82.15775 698.8872 82.15775 698.9619C 82.18849 698.9619 82.2335 699.064 82.29277 699.2681C 82.33887 699.435 82.3784 699.5942 82.41132 699.7457C 82.44645 699.8971 82.49585 700.1902 82.55952 700.6249L82.55952 700.6249L83.83395 699.9432zM70.99075 700.7073C 71.51765 700.7906 72.00942 700.8708 72.46607 700.9476C 72.92491 701.0245 73.30692 701.0914 73.61208 701.1485L73.61208 701.1485L73.61208 701.9883L73.61208 701.9883L71.46496 701.9883L71.46496 701.9883L71.46496 703.3845L71.46496 703.3845L73.61208 703.3845L73.61208 703.3845L73.61208 704.8895L73.61208 704.8895L75.10058 704.85L75.10058 704.85L75.10058 703.3845L75.10058 703.3845L76.67799 703.3845L76.67799 703.3845L76.67799 701.9883L76.67799 701.9883L75.10058 701.9883L75.10058 701.9883L75.10058 701.4449C 75.10936 701.4471 75.21693 701.4745 75.4233 701.5272C 75.62967 701.58 75.92496 701.6578 76.30915 701.761L76.30915 701.761L76.37831 701.0201L76.37831 701.0201L76.47052 700.3713C 76.12584 700.2857 75.83933 700.2155 75.61101 700.1606C 75.38488 700.1057 75.21474 700.0662 75.10058 700.042L75.10058 700.042L75.10058 698.9224C 75.10058 698.6633 75.07204 698.4361 75.01495 698.2407C 74.95787 698.0475 74.8492 697.8883 74.68893 697.7632C 74.52867 697.6381 74.33327 697.5469 74.10275 697.4899C 73.87224 697.4327 73.58793 697.3943 73.24983 697.3746L73.24983 697.3746L72.41009 697.3054L72.41009 697.3054L71.87331 698.6984L71.87331 698.6984L73.01273 698.7577C 73.18398 698.7665 73.31131 698.7808 73.39473 698.8005C 73.48035 698.8203 73.53304 698.8378 73.5528 698.8532C 73.57476 698.8708 73.59013 698.8993 73.59891 698.9388C 73.60769 698.9783 73.61208 699.0541 73.61208 699.1661L73.61208 699.1661L73.61208 699.7424C 73.38376 699.6962 73.05005 699.6348 72.61097 699.5579C 72.17188 699.4811 71.6856 699.3999 71.15211 699.3142L71.15211 699.3142L70.99075 700.7073zM70.09172 695.8301C 70.07635 695.5074 70.05989 695.2341 70.04233 695.0101C 70.02477 694.7862 70.00171 694.5546 69.97317 694.3153C 69.93365 694.0255 69.87767 693.7752 69.80522 693.5645C 69.73277 693.3559 69.6241 693.1824 69.4792 693.0441C 69.3343 692.9036 69.15428 692.8026 68.93913 692.7411C 68.72398 692.6775 68.47479 692.6313 68.19159 692.6028C 68.11255 692.5919 68.01376 692.5842 67.8952 692.5798C 67.77885 692.5754 67.65701 692.5732 67.52967 692.5732C 67.40453 692.5732 67.28268 692.5754 67.16413 692.5798C 67.04778 692.5842 66.95227 692.5908 66.87762 692.5995C 66.62515 692.6193 66.39793 692.6621 66.19595 692.728C 65.99397 692.7916 65.81944 692.8959 65.67234 693.0408C 65.52525 693.1857 65.41987 693.3701 65.3562 693.5941C 65.29253 693.8202 65.2607 694.0946 65.2607 694.4174L65.2607 694.4174L65.2607 700.3318L65.2607 700.3318L66.83152 700.2726L66.83152 700.2726L66.83152 694.6874C 66.83152 694.5381 66.83591 694.425 66.8447 694.3482C 66.85567 694.2714 66.86665 694.2253 66.87762 694.2099C 66.8908 694.1945 66.92044 694.1791 66.96655 694.1638C 67.01265 694.1484 67.09827 694.1375 67.2234 694.1309C 67.30025 694.1221 67.4177 694.1177 67.57577 694.1177C 67.73604 694.1177 67.85459 694.1221 67.93143 694.1309C 68.05657 694.1375 68.14658 694.1462 68.20147 694.1572C 68.25854 694.1704 68.29916 694.1868 68.32331 694.2066C 68.34746 694.2285 68.37051 694.2747 68.39247 694.3449C 68.41442 694.4174 68.43748 694.5359 68.46162 694.7006C 68.48577 694.9003 68.50663 695.1056 68.52419 695.3164C 68.54395 695.5294 68.56371 695.8707 68.58347 696.3406L68.58347 696.3406L70.09172 695.8301zM68.02035 701.2078C 67.80299 701.5591 67.61858 701.8434 67.46709 702.0607C 67.31781 702.2781 67.16084 702.4954 66.99618 702.7128C 66.83152 702.9301 66.67345 703.1299 66.52197 703.3121C 66.37048 703.4943 66.16412 703.7062 65.90286 703.9477L65.90286 703.9477L67.09168 704.8533C 67.34415 704.5964 67.55272 704.3736 67.71738 704.1848C 67.88423 703.9982 68.04888 703.8072 68.21134 703.6118C 68.37381 703.4164 68.52859 703.2221 68.67567 703.0289C 68.82277 702.8379 68.99181 702.6041 69.18282 702.3275L69.18282 702.3275L68.02035 701.2078zM65.29693 700.3417C 65.26839 699.6194 65.19374 698.8927 65.07299 698.1616C 64.95444 697.4327 64.76673 696.7412 64.50986 696.087C 64.2552 695.4349 63.916 694.8038 63.49229 694.1934C 63.06857 693.5831 62.478 692.8948 61.72058 692.1287L61.72058 692.1287L60.41321 693.166C 61.15307 693.8904 61.70851 694.5118 62.07954 695.0299C 62.45056 695.548 62.74694 696.0848 62.96868 696.6403C 63.19042 697.1957 63.35288 697.7939 63.45607 698.435C 63.56144 699.076 63.6317 699.7116 63.66682 700.3417L63.66682 700.3417L61.16075 700.3417L61.16075 700.3417L61.16075 701.8994L61.16075 701.8994L63.77221 701.8763C 63.75684 701.8741 63.75135 702.0311 63.75574 702.3472C 63.76013 702.6655 63.76452 702.9861 63.76891 703.3088C 63.7755 703.6337 63.78099 703.9213 63.78538 704.1716C 63.78977 704.4241 63.79197 704.6689 63.79197 704.906L63.79197 704.906L65.39243 704.8467L65.39243 704.8467L65.34303 701.8994L65.34303 701.8994L69.73277 701.8994L69.73277 701.8994L69.73277 700.3417L69.73277 700.3417L65.29693 700.3417zM62.15199 704.6392C 61.74364 703.3593 61.32541 702.2605 60.8973 701.3428L60.8973 701.3428L60.8973 692.2505L60.8973 692.2505L59.33965 692.2505L59.33965 692.2505L59.45162 698.9553C 59.51309 698.9114 59.43406 698.7313 59.21451 698.4152C 58.99497 698.1013 58.69969 697.7214 58.32866 697.2758L58.32866 697.2758L57.14972 698.3461C 57.61295 698.8795 58.00045 699.3867 58.31219 699.8675C 58.62614 700.3483 58.91813 700.8544 59.18817 701.3856C 59.4604 701.9169 59.70958 702.4636 59.93571 703.0256C 60.16183 703.5898 60.38248 704.2276 60.59763 704.9389L60.59763 704.9389L62.15199 704.6392zM51.06731 702.4362C 51.15293 701.5074 51.32966 700.6348 51.5975 699.8181C 51.86534 699.0036 52.2221 698.2363 52.66777 697.5162C 53.11563 696.7983 53.65022 696.1188 54.27152 695.4778C 54.89283 694.8389 55.67769 694.1693 56.62611 693.4689L56.62611 693.4689L55.50315 692.1122C 54.06516 693.278 52.91036 694.4569 52.03878 695.649C 51.1694 696.8411 50.62164 697.8192 50.39551 698.5832C 50.20451 697.8565 49.682 696.9092 48.82798 695.7412C 47.97396 694.5754 46.77306 693.4031 45.22529 692.2241L45.22529 692.2241L44.1188 693.5381C 45.21212 694.3284 46.08151 695.0639 46.72696 695.7445C 47.37461 696.4272 47.90041 697.1462 48.30437 697.9015C 48.71053 698.6567 49.008 699.4679 49.19681 700.3351C 49.38562 701.2045 49.4888 702.165 49.50636 703.2166C 49.50636 703.2693 49.50856 703.3615 49.51295 703.4932C 49.51734 703.6271 49.52173 703.7621 49.52612 703.8983C 49.53051 704.0366 49.53271 704.1639 49.53271 704.2803C 49.53271 704.3966 49.53271 704.569 49.53271 704.7973L49.53271 704.7973L51.10353 704.738C 51.10353 704.5207 51.10353 704.3396 51.10353 704.1947C 51.10353 704.0498 51.10134 703.8895 51.09695 703.7139C 51.09256 703.5382 51.08817 703.3648 51.08377 703.1935C 51.07938 703.0245 51.07719 702.9005 51.07719 702.8214C 51.07719 702.749 51.07719 702.6798 51.07719 702.614C 51.07719 702.5503 51.07389 702.491 51.06731 702.4362zM37.72354 700.6348L37.72354 692.1813L37.72354 692.1813L36.07039 692.1813L36.07039 692.1813L36.07039 700.7138L36.07039 700.7138L37.72354 700.6348zM30.22508 699.2978C 31.02202 699.761 31.69931 700.2045 32.25695 700.6282C 32.81678 701.0541 33.33709 701.4943 33.81789 701.9487C 34.30088 702.4054 34.74326 702.873 35.14502 703.3516C 35.54678 703.8302 35.9255 704.345 36.28115 704.8961L36.28115 704.8961L37.51608 704.8961C 38.24056 703.805 39.07153 702.8236 40.00898 701.952C 40.94862 701.0804 42.12097 700.2166 43.52604 699.3604L43.52604 699.3604L42.40638 697.9608C 41.79166 698.3998 41.22963 698.8224 40.72029 699.2286C 40.21315 699.637 39.71369 700.064 39.22192 700.5096C 38.73234 700.9575 38.26801 701.4186 37.82892 701.8928C 37.38984 702.3691 37.08138 702.7391 36.90355 703.0026C 36.37007 702.2275 35.61813 701.3977 34.64776 700.5129C 33.67738 699.6304 32.5665 698.7731 31.31511 697.941L31.31511 697.941L30.22508 699.2978z" stroke="none" fill="#000000" fill-rule="winding" /><path transform="matrix(1 0 0 -1 0 841)" d="M29.97481 560.9061L98.91686 560.9061L98.91686 560.9061L98.91686 545.9188L98.91686 545.9188L29.97481 545.9188z" stroke="none" fill="#FFFFFF" fill-rule="winding" /><path transform="matrix(1 0 0 -1 0 841)" d="M78.55507 557.9592C 78.55507 557.7111 78.55507 557.5047 78.55507 557.3401C 78.55507 557.1776 78.55287 556.9965 78.54848 556.7967C 78.54409 556.5991 78.5397 556.3971 78.53531 556.1908C 78.53092 555.9866 78.51665 555.8856 78.4925 555.8878L78.4925 555.8878L82.67148 555.924C 82.64294 555.6342 82.62099 555.3444 82.60562 555.0546C 82.59245 554.7648 82.57708 554.4213 82.55952 554.0239C 82.54195 553.6287 82.5189 553.2083 82.49036 552.7626C 82.46401 552.3169 82.43987 551.8943 82.41791 551.4948C 82.39596 551.0952 82.3784 550.7461 82.36522 550.4475C 82.35205 550.1489 82.34107 549.9536 82.33229 549.8613C 82.31033 549.532 82.25435 549.2466 82.16434 549.0051C 82.07433 548.7659 81.92504 548.5649 81.71648 548.4025C 81.5101 548.2379 81.24556 548.1149 80.92283 548.0337C 80.60011 547.9503 80.20164 547.8888 79.72742 547.8492L79.72742 547.8492L78.59788 547.7538L78.59788 547.7538L78.00512 549.3542L78.00512 549.3542L79.57923 549.4629C 79.86024 549.4783 80.07539 549.5024 80.22469 549.5353C 80.37617 549.5704 80.48374 549.6144 80.54741 549.6671C 80.61108 549.7219 80.65828 549.8021 80.68902 549.9075C 80.71975 550.015 80.74281 550.1797 80.75817 550.4014C 80.76915 550.4717 80.78123 550.6144 80.7944 550.8295C 80.80757 551.0447 80.82074 551.2982 80.83392 551.5902C 80.84708 551.8822 80.86246 552.1918 80.88002 552.5189C 80.89758 552.8483 80.91295 553.1589 80.92612 553.4509C 80.94149 553.7451 80.95576 554.0009 80.96893 554.2181C 80.98211 554.4377 81.04138 554.5442 81.14676 554.5376L81.14676 554.5376L78.47274 554.3795C 78.43761 553.7144 78.35199 553.0557 78.21587 552.4037C 78.08195 551.7516 77.87339 551.15 77.59018 550.599C 77.30917 550.0502 76.94582 549.5342 76.50015 549.0513C 76.05668 548.5682 75.45184 548.0315 74.68564 547.4409L74.68564 547.4409L73.45401 548.5507C 74.23119 549.1478 74.81517 549.6495 75.20596 550.0557C 75.59894 550.464 75.91398 550.891 76.15108 551.3367C 76.39038 551.7823 76.56602 552.2709 76.67799 552.8021C 76.79214 553.3356 76.8624 553.8615 76.88875 554.3795L76.88875 554.3795L74.31351 554.3795L74.31351 554.3795L74.31351 555.924L74.31351 555.924L76.96449 555.9141C 76.9579 555.9119 76.9568 556.0151 76.9612 556.2237C 76.96558 556.4344 76.96998 556.6408 76.97437 556.8428C 76.98095 557.0448 76.98425 557.2259 76.98425 557.3862C 76.98425 557.5464 76.98425 557.7605 76.98425 558.0283L76.98425 558.0283L78.55507 557.9592zM83.45195 559.5103L83.45195 557.9263L83.45195 557.9263L74.15545 557.9263L74.15545 557.9263L74.15545 554.6858C 74.15545 553.8867 74.12581 553.1754 74.06653 552.5519C 74.00726 551.9305 73.91066 551.3466 73.77673 550.7999C 73.64281 550.2554 73.46718 549.7318 73.24983 549.2291C 73.03468 548.7285 72.72293 548.1259 72.31458 547.4211L72.31458 547.4211L70.85902 548.1819C 71.24103 548.8383 71.53192 549.3806 71.7317 549.8087C 71.93368 550.2368 72.09724 550.6813 72.22238 551.1424C 72.34972 551.6056 72.44192 552.1117 72.499 552.6605C 72.55608 553.2094 72.58463 553.8483 72.58463 554.5771L72.58463 554.5771L72.58463 559.5103L72.58463 559.5103L83.45195 559.5103zM57.37365 549.8844C 57.782 549.9678 58.17498 550.0469 58.55259 550.1215C 58.93021 550.1984 59.32318 550.2795 59.73153 550.3652C 60.13988 550.4508 60.53945 550.5375 60.93023 550.6254C 61.32322 550.7153 61.7601 550.8273 62.2409 550.9613L62.2409 550.9613L62.32652 549.4266C 61.89622 549.3147 61.49775 549.2159 61.13111 549.1302C 60.76667 549.0469 60.39345 548.9623 60.01145 548.8767C 59.62945 548.7911 59.25842 548.7076 58.89837 548.6265C 58.53832 548.5452 58.12997 548.4585 57.67333 548.3663L57.67333 548.3663L57.37365 549.8844zM66.72614 549.6934L69.96329 549.6934L69.96329 549.6934L69.96329 548.2148L69.96329 548.2148L62.02355 548.2148L62.02355 548.2148L62.02355 549.6934L62.02355 549.6934L65.1652 549.6934L65.1652 549.6934L65.1652 551.8702L65.1652 551.8702L62.82049 551.8702L62.82049 551.8702L62.82049 553.3751L62.82049 553.3751L69.23222 553.3751L69.23222 553.3751L69.23222 551.8702L69.23222 551.8702L66.72614 551.8702L66.72614 551.8702L66.72614 549.6934zM61.59215 554.5936C 62.27932 554.8263 62.87099 555.0721 63.36715 555.3312C 63.86551 555.5925 64.3474 555.8834 64.81284 556.2039C 65.28046 556.5266 65.71296 556.8691 66.11033 557.2314C 66.5099 557.5936 66.73383 557.8077 66.78213 557.8735L66.78213 557.8735L62.79415 557.8735L62.79415 557.8735L62.79415 559.4048L62.79415 559.4048L68.89632 559.4048L68.89632 559.4048L68.89632 558.0876C 68.58237 557.6683 68.27392 557.2961 67.97095 556.9712C 67.67017 556.6463 67.43307 556.4235 67.25963 556.3027C 67.2728 556.3291 67.41222 556.2764 67.67786 556.1447C 67.9457 556.0129 68.22672 555.8724 68.5209 555.7231C 68.81728 555.5739 69.11256 555.4169 69.40675 555.2522C 69.70313 555.0897 70.05769 554.8801 70.47044 554.6232L70.47044 554.6232L69.72619 553.2236C 69.2893 553.5288 68.90839 553.7769 68.58347 553.9679C 68.26074 554.1589 67.93802 554.3433 67.61529 554.5211C 67.29475 554.7012 66.98959 554.8647 66.6998 555.0118C 66.41 555.1589 66.219 555.2555 66.12679 555.3016C 65.17618 554.5684 63.96101 553.8669 62.4813 553.1973L62.4813 553.1973L61.59215 554.5936zM58.71396 554.7582C 58.63053 554.7495 58.54381 554.7385 58.4538 554.7253C 58.36379 554.7122 58.1651 554.6858 57.85774 554.6462L57.85774 554.6462L57.50538 556.0557C 57.79298 556.1545 57.95324 556.216 57.98618 556.2401C 58.01911 556.2665 58.0685 556.3192 58.13437 556.3982C 58.28146 556.587 58.44502 556.8197 58.62504 557.0964C 58.80507 557.3752 58.98509 557.676 59.16512 557.9987C 59.34734 558.3236 59.52517 558.6595 59.6986 559.0063C 59.87204 559.3533 60.06085 559.7693 60.26502 560.2545L60.26502 560.2545L61.67448 559.6815C 61.4725 559.2117 61.28918 558.8132 61.12453 558.4861C 60.95987 558.1589 60.78643 557.8351 60.60421 557.5146C 60.42199 557.1963 60.23648 556.8911 60.04768 556.5991C 59.86106 556.3071 59.63713 556.1183 59.37588 556.0327C 59.36929 556.193 59.43625 556.2775 59.57676 556.2863C 59.71946 556.2972 59.87863 556.3071 60.05426 556.3159C 60.23209 556.3247 60.41211 556.3335 60.59433 556.3422C 60.77655 556.351 60.87974 556.3554 60.90389 556.3554C 61.02024 556.5442 61.15636 556.7671 61.31224 557.0239C 61.46811 557.283 61.65253 557.609 61.86548 558.002L61.86548 558.002L63.2025 557.3104C 62.89952 556.7704 62.61193 556.2808 62.33969 555.8417C 62.06746 555.4026 61.79303 554.9767 61.51641 554.564C 61.24199 554.1534 60.97744 553.7703 60.72277 553.4147C 60.4681 553.059 60.24526 552.8702 60.05426 552.8483C 60.0367 552.98 60.15525 553.0634 60.40992 553.0985C 60.66678 553.1359 60.92694 553.1721 61.19039 553.2072C 61.45604 553.2445 61.69643 553.2786 61.91159 553.3093C 62.12674 553.3422 62.36604 553.3806 62.62949 553.4246L62.62949 553.4246L62.65583 551.8603C 62.40775 551.834 62.13771 551.7999 61.84572 551.7582C 61.55373 551.7187 61.2343 551.6759 60.88742 551.6298C 60.54274 551.5858 60.21563 551.5431 59.90607 551.5013C 59.59652 551.4618 59.38356 551.4333 59.2672 551.4157C 59.1267 551.3982 58.99387 551.3784 58.86873 551.3564C 58.74579 551.3345 58.51857 551.2763 58.18706 551.1819L58.18706 551.1819L57.83469 552.6671C 58.18157 552.7878 58.38794 552.868 58.4538 552.9075C 58.52186 552.9492 58.59541 553.0217 58.67444 553.1249C 58.88739 553.3707 59.12889 553.6847 59.39893 554.0667C 59.67116 554.4509 59.84789 554.7056 59.92912 554.8307L59.92912 554.8307L58.71396 554.7582zM48.64027 559.5662C 48.41853 559.0129 48.21436 558.5157 48.02775 558.0745C 47.84114 557.6332 47.63477 557.1875 47.40864 556.7374L47.40864 556.7374L47.40864 547.5957L47.40864 547.5957L45.82464 547.5957L45.82464 547.5957L45.82464 554.0568C 45.75439 553.9514 45.39873 553.5134 44.75767 552.7429L44.75767 552.7429L43.63471 553.9086C 44.17039 554.5233 44.60399 555.082 44.9355 555.5848C 45.26701 556.0875 45.56229 556.5837 45.82135 557.0733C 46.08261 557.5651 46.30873 558.0481 46.49974 558.5223C 46.69074 558.9987 46.89272 559.5453 47.10567 560.1622L47.10567 560.1622L48.64027 559.5662zM52.2232 556.7407L52.2232 555.183L52.2232 555.183L55.69086 555.183L55.69086 555.183L55.69086 553.6517L55.69086 553.6517L52.2232 553.6517L52.2232 553.6517L52.2232 552.0249L52.2232 552.0249L55.93456 552.0249L55.93456 552.0249L55.93456 550.4805L55.93456 550.4805L52.2232 550.4805L52.2232 550.4805L52.2232 547.5397L52.2232 547.5397L50.62603 547.5397L50.62603 547.5397L50.62603 556.7407L50.62603 556.7407L50.46466 556.7407C 50.26269 556.3719 49.99704 555.9361 49.66773 555.4333C 49.34061 554.9327 48.88506 554.3159 48.30108 553.5826L48.30108 553.5826L47.15178 554.6891C 47.64355 555.2841 48.03434 555.7977 48.32413 556.2303C 48.61612 556.665 48.87957 557.0964 49.11448 557.5245C 49.34939 557.9526 49.55686 558.3785 49.73688 558.8022C 49.9191 559.226 50.11779 559.7539 50.33294 560.3862L50.33294 560.3862L51.79838 559.777C 51.6469 559.3577 51.51847 559.0173 51.41309 558.7561C 51.3099 558.4971 51.25282 558.3533 51.24184 558.3247L51.24184 558.3247L56.43182 558.3247L56.43182 558.3247L56.43182 556.7407L56.43182 556.7407L52.2232 556.7407zM43.03865 550.0557L43.03865 548.4717L43.03865 548.4717L30.77174 548.4717L30.77174 548.4717L30.77174 550.0557L30.77174 550.0557L36.05722 550.0557L36.05722 550.0557L36.05722 557.5771L36.05722 557.5771L31.68723 557.5771L31.68723 557.5771L31.68723 559.2007L31.68723 559.2007L42.13634 559.2007L42.13634 559.2007L42.13634 557.5771L42.13634 557.5771L37.76306 557.5771L37.76306 557.5771L37.76306 550.0557L37.76306 550.0557L43.03865 550.0557z" stroke="none" fill="#000000" fill-rule="winding" /></g></g></g></g></svg>