<svg xmlns="http://www.w3.org/2000/svg" xmlns:xlink="http://www.w3.org/1999/xlink" id="body_2" preserveAspectRatio="xMinYMin meet" viewBox="0 0 792 1121"><defs><clipPath id="1"><path d="M0 841L0 -0.9199829L0 -0.9199829L594.96 -0.9199829L594.96 -0.9199829L594.96 841L594.96 841L0 841z" /></clipPath><clipPath id="2"><path d="M0 14.08002L594.9999 14.08002L594.9999 14.08002L594.9999 840.6354L594.9999 840.6354L0 840.6354z" /></clipPath><clipPath id="3"><path d="M26.22796 113.7462L568.772 113.7462L568.772 113.7462L568.772 145.2198L568.772 145.2198L26.22796 145.2198z" /></clipPath><clipPath id="4"><path d="M0 14.08002L594.9999 14.08002L594.9999 14.08002L594.9999 840.6354L594.9999 840.6354L0 840.6354z" /></clipPath></defs><g transform="matrix(1.333333 0 0 1.333333 0 0)"><g><g clip-path="url(#1)"><g clip-path="url(#2)"><path transform="matrix(1 0 0 -1 0 841)" d="M0 1653.475L594.9999 1653.475L594.9999 1653.475L594.9999 826.9199L594.9999 826.9199L0 826.9199z" stroke="none" fill="#FFFFFF" fill-rule="winding" /><path transform="matrix(1 0 0 -1 0 841)" d="M0 826.9199L594.9999 826.9199L594.9999 826.9199L594.9999 440.2449L594.9999 440.2449L0 440.2449z" stroke="none" fill="#FFFFFF" fill-rule="winding" /></g><g clip-path="url(#3)"><path transform="matrix(1 0 0 -1 0 841)" d="M29.97481 697.2788L29.97481 712.2662C 29.9748 712.465 30.01283 712.6562 30.08888 712.8398C 30.16494 713.0236 30.27324 713.1857 30.41378 713.326C 30.55431 713.4667 30.71638 713.5749 30.9 713.6509C 31.08362 713.7269 31.2748 713.765 31.47355 713.765L31.47355 713.765L94.42064 713.765C 94.61938 713.765 94.81056 713.7269 94.99418 713.6509C 95.17779 713.5749 95.33987 713.4667 95.48041 713.326C 95.62093 713.1857 95.72923 713.0236 95.80529 712.8398C 95.88134 712.6562 95.91937 712.465 95.91938 712.2662L95.91938 712.2662L95.91938 697.2788C 95.91937 697.0802 95.88134 696.889 95.80529 696.7054C 95.72923 696.5219 95.62093 696.3597 95.48041 696.2192C 95.33987 696.0787 95.17779 695.9703 94.99418 695.8942C 94.81056 695.8182 94.61938 695.7802 94.42064 695.7801L94.42064 695.7801L31.47355 695.7801C 31.2748 695.7802 31.08362 695.8182 30.9 695.8942C 30.71638 695.9703 30.55431 696.0787 30.41378 696.2192C 30.27324 696.3597 30.16494 696.5219 30.08888 696.7054C 30.01283 696.889 29.9748 697.0802 29.97481 697.2788z" stroke="none" fill="#F5F6F7" fill-rule="winding" /><path transform="matrix(1 0 0 -1 0 841)" d="M103.4131 697.2788L103.4131 712.2662C 103.4131 712.465 103.4511 712.6562 103.5271 712.8398C 103.6032 713.0236 103.7115 713.1857 103.852 713.326C 103.9926 713.4667 104.1547 713.5749 104.3383 713.6509C 104.5219 713.7269 104.7131 713.765 104.9118 713.765L104.9118 713.765L160.3652 713.765C 160.5639 713.765 160.7551 713.7269 160.9387 713.6509C 161.1223 713.5749 161.2844 713.4667 161.425 713.326C 161.5655 713.1857 161.6738 713.0236 161.7498 712.8398C 161.8259 712.6562 161.8639 712.465 161.864 712.2662L161.864 712.2662L161.864 697.2788C 161.8639 697.0802 161.8259 696.889 161.7498 696.7054C 161.6738 696.5219 161.5655 696.3597 161.425 696.2192C 161.2844 696.0787 161.1223 695.9703 160.9387 695.8942C 160.7551 695.8182 160.5639 695.7802 160.3652 695.7801L160.3652 695.7801L104.9118 695.7801C 104.7131 695.7802 104.5219 695.8182 104.3383 695.8942C 104.1547 695.9703 103.9926 696.0787 103.852 696.2192C 103.7115 696.3597 103.6032 696.5219 103.5272 696.7054C 103.4511 696.889 103.4131 697.0802 103.4131 697.2788z" stroke="none" fill="#F5F6F7" fill-rule="winding" /><path transform="matrix(1 0 0 -1 0 841)" d="M169.3577 697.2788L169.3577 712.2662C 169.3577 712.465 169.3957 712.6562 169.4717 712.8398C 169.5478 713.0236 169.6561 713.1857 169.7966 713.326C 169.9371 713.4667 170.0992 713.5749 170.2828 713.6509C 170.4664 713.7269 170.6576 713.765 170.8564 713.765L170.8564 713.765L252.5378 713.765C 252.7365 713.765 252.9277 713.7269 253.1113 713.6509C 253.2949 713.5749 253.457 713.4667 253.5975 713.326C 253.738 713.1857 253.8463 713.0236 253.9224 712.8398C 253.9985 712.6562 254.0365 712.465 254.0365 712.2662L254.0365 712.2662L254.0365 697.2788C 254.0365 697.0802 253.9985 696.889 253.9224 696.7054C 253.8463 696.5219 253.738 696.3597 253.5975 696.2192C 253.457 696.0787 253.2949 695.9703 253.1113 695.8942C 252.9277 695.8182 252.7365 695.7802 252.5378 695.7801L252.5378 695.7801L170.8564 695.7801C 170.6576 695.7802 170.4664 695.8182 170.2828 695.8942C 170.0992 695.9703 169.9371 696.0787 169.7966 696.2192C 169.6561 696.3597 169.5478 696.5219 169.4717 696.7054C 169.3957 696.889 169.3577 697.0802 169.3577 697.2788z" stroke="none" fill="#F5F6F7" fill-rule="winding" /><path transform="matrix(1 0 0 -1 0 841)" d="M261.5302 697.2788L261.5302 712.2662C 261.5302 712.465 261.5682 712.6562 261.6442 712.8398C 261.7203 713.0236 261.8286 713.1857 261.9691 713.326C 262.1096 713.4667 262.2717 713.5749 262.4554 713.6509C 262.639 713.7269 262.8302 713.765 263.0289 713.765L263.0289 713.765L389.6725 713.765C 389.8712 713.765 390.0623 713.7269 390.246 713.6509C 390.4296 713.5749 390.5917 713.4667 390.7322 713.326C 390.8727 713.1857 390.981 713.0236 391.0571 712.8398C 391.1331 712.6562 391.1712 712.465 391.1712 712.2662L391.1712 712.2662L391.1712 697.2788C 391.1712 697.0802 391.1331 696.889 391.0571 696.7054C 390.981 696.5219 390.8727 696.3597 390.7322 696.2192C 390.5917 696.0787 390.4296 695.9703 390.246 695.8942C 390.0623 695.8182 389.8712 695.7802 389.6725 695.7801L389.6725 695.7801L263.0289 695.7801C 262.8302 695.7802 262.639 695.8182 262.4554 695.8942C 262.2717 695.9703 262.1096 696.0787 261.9691 696.2192C 261.8286 696.3597 261.7203 696.5219 261.6442 696.7054C 261.5682 696.889 261.5302 697.0802 261.5302 697.2788z" stroke="none" fill="#F5F6F7" fill-rule="winding" /></g><g clip-path="url(#4)"><path transform="matrix(1 0 0 -1 0 841)" d="M29.97481 818.6768L565.0251 818.6768L565.0251 818.6768L565.0251 817.9274L565.0251 817.9274L29.97481 817.9274z" stroke="none" fill="#E3E4E6" fill-rule="winding" /><path transform="matrix(1 0 0 -1 0 841)" d="M29.97481 818.6768L565.0251 818.6768L565.0251 818.6768L565.0251 817.9274L565.0251 817.9274L29.97481 817.9274z" stroke="none" fill="#E3E4E6" fill-rule="winding" /><path transform="matrix(1 0 0 -1 0 841)" d="M29.97481 733.2486L565.0251 733.2486L565.0251 733.2486L565.0251 732.4992L565.0251 732.4992L29.97481 732.4992z" stroke="none" fill="#E3E4E6" fill-rule="winding" /><path transform="matrix(1 0 0 -1 0 841)" d="M29.97481 733.2486L565.0251 733.2486L565.0251 733.2486L565.0251 732.4992L565.0251 732.4992L29.97481 732.4992z" stroke="none" fill="#E3E4E6" fill-rule="winding" /><path transform="matrix(1 0 0 -1 0 841)" d="M29.97481 665.0559L565.0251 665.0559L565.0251 665.0559L565.0251 664.3065L565.0251 664.3065L29.97481 664.3065z" stroke="none" fill="#E3E4E6" fill-rule="winding" /><path transform="matrix(1 0 0 -1 0 841)" d="M29.97481 665.0559L565.0251 665.0559L565.0251 665.0559L565.0251 664.3065L565.0251 664.3065L29.97481 664.3065z" stroke="none" fill="#E3E4E6" fill-rule="winding" /><path transform="matrix(1 0 0 -1 0 841)" d="M29.97481 602.8582L565.0251 602.8582L565.0251 602.8582L565.0251 602.1088L565.0251 602.1088L29.97481 602.1088z" stroke="none" fill="#E3E4E6" fill-rule="winding" /><path transform="matrix(1 0 0 -1 0 841)" d="M29.97481 602.8582L565.0251 602.8582L565.0251 602.8582L565.0251 602.1088L565.0251 602.1088L29.97481 602.1088z" stroke="none" fill="#E3E4E6" fill-rule="winding" /><path transform="matrix(1 0 0 -1 0 841)" d="M29.97481 517.4299L565.0251 517.4299L565.0251 517.4299L565.0251 516.6805L565.0251 516.6805L29.97481 516.6805z" stroke="none" fill="#E3E4E6" fill-rule="winding" /><path transform="matrix(1 0 0 -1 0 841)" d="M29.97481 517.4299L565.0251 517.4299L565.0251 517.4299L565.0251 516.6805L565.0251 516.6805L29.97481 516.6805z" stroke="none" fill="#E3E4E6" fill-rule="winding" /><path transform="matrix(1 0 0 -1 0 841)" d="M29.97481 826.1705L98.91686 826.1705L98.91686 826.1705L98.91686 811.1831L98.91686 811.1831L29.97481 811.1831z" stroke="none" fill="#FFFFFF" fill-rule="winding" /><path transform="matrix(1 0 0 -1 0 841)" d="M78.55507 823.2235C 78.55507 822.9754 78.55507 822.769 78.55507 822.6044C 78.55507 822.442 78.55287 822.2608 78.54848 822.061C 78.54409 821.8635 78.5397 821.6615 78.53531 821.4551C 78.53092 821.2509 78.51665 821.15 78.4925 821.1522L78.4925 821.1522L82.67148 821.1884C 82.64294 820.8986 82.62099 820.6088 82.60562 820.319C 82.59245 820.0292 82.57708 819.6856 82.55952 819.2882C 82.54195 818.8931 82.5189 818.4726 82.49036 818.027C 82.46401 817.5813 82.43987 817.1587 82.41791 816.7591C 82.39596 816.3596 82.3784 816.0104 82.36522 815.7119C 82.35205 815.4133 82.34107 815.2179 82.33229 815.1257C 82.31033 814.7964 82.25435 814.511 82.16434 814.2695C 82.07433 814.0302 81.92504 813.8293 81.71648 813.6669C 81.5101 813.5022 81.24556 813.3793 80.92283 813.298C 80.60011 813.2146 80.20164 813.1531 79.72742 813.1136L79.72742 813.1136L78.59788 813.0181L78.59788 813.0181L78.00512 814.6186L78.00512 814.6186L79.57923 814.7272C 79.86024 814.7426 80.07539 814.7667 80.22469 814.7997C 80.37617 814.8348 80.48374 814.8787 80.54741 814.9314C 80.61108 814.9863 80.65828 815.0664 80.68902 815.1718C 80.71975 815.2794 80.74281 815.444 80.75817 815.6658C 80.76915 815.736 80.78123 815.8787 80.7944 816.0939C 80.80757 816.309 80.82074 816.5626 80.83392 816.8546C 80.84708 817.1466 80.86246 817.4561 80.88002 817.7833C 80.89758 818.1125 80.91295 818.4232 80.92612 818.7152C 80.94149 819.0094 80.95576 819.2652 80.96893 819.4825C 80.98211 819.7021 81.04138 819.8085 81.14676 819.8019L81.14676 819.8019L78.47274 819.6439C 78.43761 818.9786 78.35199 818.3201 78.21587 817.668C 78.08195 817.016 77.87339 816.4144 77.59018 815.8633C 77.30917 815.3145 76.94582 814.7986 76.50015 814.3156C 76.05668 813.8326 75.45184 813.2958 74.68564 812.7053L74.68564 812.7053L73.45401 813.8151C 74.23119 814.4122 74.81517 814.9138 75.20596 815.32C 75.59894 815.7283 75.91398 816.1553 76.15108 816.601C 76.39038 817.0467 76.56602 817.5352 76.67799 818.0665C 76.79214 818.6 76.8624 819.1257 76.88875 819.6439L76.88875 819.6439L74.31351 819.6439L74.31351 819.6439L74.31351 821.1884L74.31351 821.1884L76.96449 821.1785C 76.9579 821.1763 76.9568 821.2795 76.9612 821.488C 76.96558 821.6988 76.96998 821.9052 76.97437 822.1071C 76.98095 822.3091 76.98425 822.4902 76.98425 822.6505C 76.98425 822.8108 76.98425 823.0248 76.98425 823.2927L76.98425 823.2927L78.55507 823.2235zM83.45195 824.7746L83.45195 823.1906L83.45195 823.1906L74.15545 823.1906L74.15545 823.1906L74.15545 819.9501C 74.15545 819.151 74.12581 818.4397 74.06653 817.8162C 74.00726 817.1949 73.91066 816.6109 73.77673 816.0643C 73.64281 815.5198 73.46718 814.9962 73.24983 814.4934C 73.03468 813.9929 72.72293 813.3902 72.31458 812.6855L72.31458 812.6855L70.85902 813.4462C 71.24103 814.1027 71.53192 814.6449 71.7317 815.073C 71.93368 815.5011 72.09724 815.9457 72.22238 816.4067C 72.34972 816.87 72.44192 817.376 72.499 817.9249C 72.55608 818.4737 72.58463 819.1126 72.58463 819.8415L72.58463 819.8415L72.58463 824.7746L72.58463 824.7746L83.45195 824.7746zM57.37365 815.1487C 57.782 815.2322 58.17498 815.3112 58.55259 815.3859C 58.93021 815.4627 59.32318 815.5439 59.73153 815.6296C 60.13988 815.7151 60.53945 815.8019 60.93023 815.8897C 61.32322 815.9797 61.7601 816.0917 62.2409 816.2256L62.2409 816.2256L62.32652 814.691C 61.89622 814.579 61.49775 814.4802 61.13111 814.3947C 60.76667 814.3112 60.39345 814.2267 60.01145 814.1411C 59.62945 814.0554 59.25842 813.972 58.89837 813.8908C 58.53832 813.8096 58.12997 813.7228 57.67333 813.6306L57.67333 813.6306L57.37365 815.1487zM66.72614 814.9578L69.96329 814.9578L69.96329 814.9578L69.96329 813.4791L69.96329 813.4791L62.02355 813.4791L62.02355 813.4791L62.02355 814.9578L62.02355 814.9578L65.1652 814.9578L65.1652 814.9578L65.1652 817.1345L65.1652 817.1345L62.82049 817.1345L62.82049 817.1345L62.82049 818.6395L62.82049 818.6395L69.23222 818.6395L69.23222 818.6395L69.23222 817.1345L69.23222 817.1345L66.72614 817.1345L66.72614 817.1345L66.72614 814.9578zM61.59215 819.8579C 62.27932 820.0906 62.87099 820.3365 63.36715 820.5956C 63.86551 820.8569 64.3474 821.1478 64.81284 821.4683C 65.28046 821.791 65.71296 822.1335 66.11033 822.4957C 66.5099 822.858 66.73383 823.072 66.78213 823.1379L66.78213 823.1379L62.79415 823.1379L62.79415 823.1379L62.79415 824.6692L62.79415 824.6692L68.89632 824.6692L68.89632 824.6692L68.89632 823.3519C 68.58237 822.9326 68.27392 822.5605 67.97095 822.2356C 67.67017 821.9106 67.43307 821.6878 67.25963 821.5671C 67.2728 821.5934 67.41222 821.5407 67.67786 821.409C 67.9457 821.2773 68.22672 821.1368 68.5209 820.9875C 68.81728 820.8382 69.11256 820.6812 69.40675 820.5165C 69.70313 820.3541 70.05769 820.1444 70.47044 819.8876L70.47044 819.8876L69.72619 818.488C 69.2893 818.7932 68.90839 819.0413 68.58347 819.2322C 68.26074 819.4232 67.93802 819.6077 67.61529 819.7855C 67.29475 819.9655 66.98959 820.1291 66.6998 820.2762C 66.41 820.4233 66.219 820.5198 66.12679 820.566C 65.17618 819.8327 63.96101 819.1312 62.4813 818.4617L62.4813 818.4617L61.59215 819.8579zM58.71396 820.0226C 58.63053 820.0138 58.54381 820.0028 58.4538 819.9897C 58.36379 819.9765 58.1651 819.9501 57.85774 819.9106L57.85774 819.9106L57.50538 821.3201C 57.79298 821.4189 57.95324 821.4803 57.98618 821.5045C 58.01911 821.5308 58.0685 821.5836 58.13437 821.6626C 58.28146 821.8514 58.44502 822.0841 58.62504 822.3607C 58.80507 822.6395 58.98509 822.9403 59.16512 823.2631C 59.34734 823.588 59.52517 823.9238 59.6986 824.2708C 59.87204 824.6176 60.06085 825.0336 60.26502 825.5188L60.26502 825.5188L61.67448 824.9458C 61.4725 824.476 61.28918 824.0775 61.12453 823.7504C 60.95987 823.4233 60.78643 823.0995 60.60421 822.7789C 60.42199 822.4606 60.23648 822.1555 60.04768 821.8635C 59.86106 821.5715 59.63713 821.3826 59.37588 821.2971C 59.36929 821.4573 59.43625 821.5418 59.57676 821.5506C 59.71946 821.5616 59.87863 821.5715 60.05426 821.5803C 60.23209 821.5891 60.41211 821.5978 60.59433 821.6066C 60.77655 821.6154 60.87974 821.6198 60.90389 821.6198C 61.02024 821.8086 61.15636 822.0314 61.31224 822.2883C 61.46811 822.5473 61.65253 822.8734 61.86548 823.2663L61.86548 823.2663L63.2025 822.5748C 62.89952 822.0347 62.61193 821.5451 62.33969 821.106C 62.06746 820.6669 61.79303 820.241 61.51641 819.8283C 61.24199 819.4177 60.97744 819.0347 60.72277 818.679C 60.4681 818.3234 60.24526 818.1345 60.05426 818.1125C 60.0367 818.2443 60.15525 818.3277 60.40992 818.3629C 60.66678 818.4001 60.92694 818.4364 61.19039 818.4715C 61.45604 818.5089 61.69643 818.5428 61.91159 818.5736C 62.12674 818.6066 62.36604 818.645 62.62949 818.6888L62.62949 818.6888L62.65583 817.1246C 62.40775 817.0983 62.13771 817.0643 61.84572 817.0225C 61.55373 816.983 61.2343 816.9402 60.88742 816.8941C 60.54274 816.8502 60.21563 816.8074 59.90607 816.7657C 59.59652 816.7262 59.38356 816.6976 59.2672 816.6801C 59.1267 816.6625 58.99387 816.6428 58.86873 816.6208C 58.74579 816.5988 58.51857 816.5406 58.18706 816.4462L58.18706 816.4462L57.83469 817.9315C 58.18157 818.0522 58.38794 818.1323 58.4538 818.1719C 58.52186 818.2136 58.59541 818.286 58.67444 818.3892C 58.88739 818.6351 59.12889 818.949 59.39893 819.3311C 59.67116 819.7152 59.84789 819.9699 59.92912 820.095L59.92912 820.095L58.71396 820.0226zM53.34945 816.4396L53.34945 816.96L53.34945 816.96L47.40864 816.96L47.40864 816.96L47.40864 816.4396L47.40864 816.4396L53.34945 816.4396zM47.40864 818.8337L47.40864 818.3563L47.40864 818.3563L53.34945 818.3563L53.34945 818.3563L53.34945 818.8337L53.34945 818.8337L47.40864 818.8337zM45.89051 820.2432L54.88075 820.2432L54.88075 820.2432L54.88075 814.7964C 54.88075 814.4868 54.85331 814.2223 54.79842 814.0027C 54.74354 813.7832 54.63816 813.6042 54.48228 813.4659C 54.32641 813.3276 54.12992 813.2311 53.89281 813.1761C 53.65571 813.1191 53.36921 813.0763 53.03331 813.0477L53.03331 813.0477L51.82143 812.949L51.82143 812.949L51.31758 814.3749L51.31758 814.3749L52.81267 814.4967C 52.9883 814.5121 53.11344 814.5275 53.18808 814.5428C 53.26492 814.5604 53.30664 814.5724 53.31322 814.579C 53.32201 814.5878 53.32969 814.6186 53.33627 814.6713C 53.34505 814.7239 53.34945 814.8206 53.34945 814.9611L53.34945 814.9611L53.34945 815.0434L53.34945 815.0434L47.40864 815.0434L47.40864 815.0434L47.40864 812.9786L47.40864 812.9786L45.89051 812.9786L45.89051 812.9786L45.89051 820.2432zM52.61179 821.9721C 52.56788 821.9128 52.42957 821.9699 52.19685 822.1434C 51.96414 822.319 51.67324 822.5309 51.32417 822.7789L51.32417 822.7789L51.5514 822.9996L51.5514 822.9996L49.72042 822.9765C 49.39111 822.7263 49.03325 822.4617 48.64686 822.1829C 48.26046 821.9063 47.96079 821.7767 47.74783 821.7943C 47.74344 821.9216 47.97286 821.9897 48.4361 821.9985C 48.89933 822.0073 49.40318 822.0182 49.94764 822.0314C 50.49211 822.0446 51.04535 822.0555 51.60738 822.0643C 52.16941 822.0731 52.50421 822.0424 52.61179 821.9721zM56.54049 822.9765L53.11234 823.1214C 53.16723 823.2026 53.32969 823.15 53.59972 822.9634C 53.87196 822.7789 54.14199 822.5869 54.40984 822.3871C 54.67987 822.1873 54.93893 821.9864 55.18702 821.7844C 55.43729 821.5847 55.73367 821.3387 56.07616 821.0468L56.07616 821.0468L55.12774 819.7789C 54.85112 820.0314 54.63706 820.2202 54.48558 820.3453C 54.33629 820.4705 54.20346 820.5813 54.08711 820.6779C 53.93123 820.6713 53.64803 820.6658 53.23748 820.6614C 52.82913 820.657 52.38017 820.6483 51.89059 820.6351C 51.40101 820.6219 50.89497 820.611 50.37246 820.6022C 49.85214 820.5934 49.36037 820.5813 48.89713 820.566C 48.4339 820.5528 48.02775 820.5418 47.67868 820.533C 47.32961 820.5242 47.08482 820.5154 46.94431 820.5067C 46.68525 820.4891 46.44156 820.4705 46.21323 820.4507C 45.98491 820.4331 45.64243 820.4035 45.18578 820.3618L45.18578 820.3618L44.91245 821.8734C 45.27469 821.9063 45.52387 821.9513 45.65999 822.0084C 45.7983 822.0654 45.93441 822.128 46.06834 822.196C 46.37569 822.3607 46.69952 822.5539 47.03981 822.7756C 47.3801 822.9974 47.56122 823.0874 47.58318 823.0457L47.58318 823.0457L44.24723 822.9765L44.24723 822.9765L44.24723 824.4255L44.24723 824.4255L49.62162 824.3893C 49.59967 824.3805 49.55137 824.4749 49.47673 824.6725C 49.40428 824.8701 49.28463 825.1434 49.11777 825.4925L49.11777 825.4925L50.71824 825.7658C 50.83899 825.4628 50.94217 825.1906 51.02779 824.9491C 51.11341 824.7076 51.17488 824.5331 51.2122 824.4255L51.2122 824.4255L56.54049 824.4255L56.54049 824.4255L56.54049 822.9765zM38.77734 821.2905C 38.88712 820.7043 39.03421 820.128 39.21862 819.5615C 39.40304 818.9951 39.55123 818.6099 39.6632 818.4056C 39.79712 818.6669 39.95409 819.1422 40.13411 819.8316C 40.31633 820.5231 40.45465 821.207 40.54905 821.8832L40.54905 821.8832L39.02762 821.8832C 39.01664 821.8569 38.98152 821.7723 38.92224 821.6296C 38.86296 821.4869 38.81467 821.3739 38.77734 821.2905zM40.56881 816.9007C 40.84982 816.4924 41.22085 816.0599 41.68188 815.6032C 42.14293 815.1465 42.75874 814.6394 43.52933 814.0818L43.52933 814.0818L42.50846 812.8304C 41.25268 813.7942 40.31414 814.7119 39.69283 815.5834C 39.45792 815.2585 39.07592 814.8513 38.54683 814.3617C 38.01992 813.8721 37.34044 813.3167 36.50838 812.6954L36.50838 812.6954L35.38542 813.9039C 36.30969 814.5209 37.03528 815.0708 37.56218 815.5538C 38.08908 816.0368 38.50511 816.4946 38.81028 816.9271C 38.27459 817.8184 37.93979 818.7482 37.80587 819.7163C 37.89588 819.6592 37.8882 819.5451 37.78282 819.3738C 37.67744 819.2048 37.50949 818.9578 37.27897 818.6329L37.27897 818.6329L36.14284 819.6373C 36.45459 820.0786 36.72462 820.5253 36.95295 820.9776C 37.18347 821.4299 37.39972 821.9084 37.6017 822.4134C 37.80587 822.9183 37.9848 823.4266 38.13848 823.9381C 38.29435 824.4496 38.42278 825.0128 38.52377 825.6275L38.52377 825.6275L40.05837 825.2916C 39.93543 824.7603 39.82566 824.3256 39.72906 823.9875C 39.63465 823.6516 39.57318 823.442 39.54464 823.3585L39.54464 823.3585L43.065 823.3585L43.065 823.3585L43.065 821.8832L43.065 821.8832L42.03425 821.8832C 41.92009 820.926 41.74116 820.0149 41.49747 819.1499C 41.25378 818.2871 40.94423 817.5374 40.56881 816.9007zM37.49632 816.0412C 37.02869 815.9709 36.58302 815.9062 36.15931 815.8469C 35.73559 815.7898 35.36676 815.7404 35.05281 815.6987L35.05281 815.6987L35.05281 814.556C 35.05281 814.2772 35.02427 814.0379 34.96719 813.8381C 34.91231 813.6361 34.80693 813.4692 34.65105 813.3375C 34.49737 813.2036 34.30198 813.1092 34.06487 813.0543C 33.82777 812.9973 33.53688 812.9544 33.1922 812.9259L33.1922 812.9259L32.33928 812.8568L32.33928 812.8568L31.8453 814.3123L31.8453 814.3123L32.92545 814.4177C 33.11206 814.433 33.25037 814.4506 33.34039 814.4704C 33.4304 814.4923 33.48748 814.5132 33.51163 814.533C 33.53798 814.5527 33.55773 814.5911 33.5709 814.6482C 33.58408 814.7075 33.59066 814.8063 33.59066 814.9446L33.59066 814.9446L33.59066 815.5176C 33.30306 815.4825 32.92984 815.4374 32.471 815.3826C 32.01216 815.3299 31.52587 815.2761 31.01214 815.2212L31.01214 815.2212L30.73223 816.6998C 31.30743 816.7415 31.83872 816.7866 32.3261 816.8348C 32.81348 816.8831 33.235 816.9293 33.59066 816.9731L33.59066 816.9731L33.59066 817.5231L33.59066 817.5231L34.42053 818.3069L34.42053 818.3069L32.96497 818.3069C 32.72786 818.129 32.45673 817.9282 32.15157 817.7042C 31.8464 817.4825 31.44354 817.2081 30.94299 816.8809L30.94299 816.8809L30.14276 818.0829C 30.94847 818.5725 31.61149 819.0182 32.13181 819.4199C 32.65432 819.8239 32.97814 820.0873 33.10328 820.2103L33.10328 820.2103L30.75857 820.2103L30.75857 820.2103L30.75857 821.6461L30.75857 821.6461L32.98143 821.6461L32.98143 821.6461L32.98143 822.5978L32.98143 822.5978L31.24266 822.5978L31.24266 822.5978L31.24266 823.9941L31.24266 823.9941L32.98143 823.9941L32.98143 823.9941L32.98143 825.5945L32.98143 825.5945L34.42053 825.5485L34.42053 825.5485L34.42053 823.9941L34.42053 823.9941L35.87609 823.9941L35.87609 823.9941L35.87609 822.5978L35.87609 822.5978L34.42053 822.5978L34.42053 822.5978L34.42053 821.6461L34.42053 821.6461L34.46993 821.6461C 34.82559 822.0654 35.16917 822.5374 35.50068 823.0621C 35.83219 823.5869 36.17907 824.2268 36.54131 824.9821L36.54131 824.9821L37.85856 824.4091C 37.5051 823.6582 37.17908 823.0446 36.8805 822.5682C 36.58192 822.0918 36.37885 821.7844 36.27127 821.6461L36.27127 821.6461L37.29214 821.6461L37.29214 821.6461L37.29214 820.2103L37.29214 820.2103L35.08245 820.2103C 34.9639 820.0851 34.81351 819.9337 34.63129 819.7559C 34.44907 819.578 34.32942 819.5187 34.27234 819.578L34.27234 819.578L36.69938 819.7032L36.69938 819.7032L36.69938 818.4748L36.69938 818.4748L35.05281 817.0192L35.05281 817.0192L35.02976 817.1444C 35.29102 817.1949 35.63021 817.2487 36.04734 817.3058C 36.46447 817.3651 36.93209 817.4386 37.45021 817.5264L37.45021 817.5264L37.49632 816.6241L37.49632 816.6241L37.49632 816.0412z" stroke="none" fill="#000000" fill-rule="winding" /><path transform="matrix(1 0 0 -1 0 841)" d="M29.97481 740.7423L98.91686 740.7423L98.91686 740.7423L98.91686 725.7549L98.91686 725.7549L29.97481 725.7549z" stroke="none" fill="#FFFFFF" fill-rule="winding" /><path transform="matrix(1 0 0 -1 0 841)" d="M76.72079 734.2618L79.58253 734.2618L79.58253 734.2618L79.77682 736.5077L79.77682 736.5077L76.72079 736.5077L76.72079 736.5077L76.72079 734.2618zM82.59574 736.2245C 82.29497 736.5999 82.01944 736.9029 81.76917 737.1334C 81.51888 737.3661 81.25434 737.5944 80.97552 737.8184C 80.6967 738.0445 80.42227 738.2552 80.15224 738.4506C 79.8822 738.6461 79.56167 738.8612 79.19064 739.0961L79.19064 739.0961L80.15553 740.2651C 80.49582 740.0632 80.80757 739.8612 81.09078 739.6592C 81.37618 739.4594 81.66159 739.2454 81.94699 739.0171C 82.2346 738.7888 82.51012 738.5604 82.77357 738.3321C 83.03922 738.1038 83.31803 737.8447 83.61002 737.5549L83.61002 737.5549L82.59574 736.2245zM81.13029 734.2618L83.00409 734.2618C 83.00409 733.9325 82.98872 733.6053 82.95798 733.2805C 82.92725 732.9577 82.89542 732.6152 82.86248 732.253C 82.83175 731.8929 82.79772 731.5537 82.7604 731.2354C 82.72527 730.9171 82.70332 730.692 82.69453 730.5603C 82.6638 730.2288 82.58916 729.9423 82.4706 729.7008C 82.35424 729.4615 82.17971 729.2628 81.94699 729.1047C 81.71648 728.9467 81.43546 728.8292 81.10395 728.7524C 80.77245 728.6733 80.36958 728.6196 79.89537 728.591L79.89537 728.591L78.78559 728.5219L78.78559 728.5219L78.20271 730.119L78.20271 730.119L79.78999 730.1882C 80.07759 730.197 80.30701 730.22 80.47826 730.2573C 80.6517 730.2969 80.78013 730.3441 80.86356 730.3989C 80.94698 730.456 81.00735 730.5306 81.04468 730.6229C 81.08419 730.7173 81.11603 730.8457 81.14017 731.0082C 81.14896 731.0894 81.16432 731.2255 81.18628 731.4165C 81.21043 731.6097 81.23238 731.8117 81.25214 732.0225C 81.27409 732.2332 81.29385 732.433 81.31142 732.6218C 81.33118 732.8106 81.39814 732.8995 81.5123 732.8885L81.5123 732.8885L76.72079 732.7173L76.72079 732.7173L76.72079 727.3759L76.72079 727.3759L75.13351 727.3759L75.13351 727.3759L75.13351 732.7173L75.13351 732.7173L71.12906 732.7173L71.12906 732.7173L71.12906 734.2618L71.12906 734.2618L75.13351 734.2618L75.13351 734.2618L75.13351 736.5077L75.13351 736.5077L71.97868 736.5077L71.97868 736.5077L71.97868 738.0522L71.97868 738.0522L75.13351 738.0522L75.13351 738.0522L75.13351 740.2322L75.13351 740.2322L76.72079 740.1894L76.72079 740.1894L76.72079 738.0522L76.72079 738.0522L81.46619 738.0522L81.46619 738.0522L81.13029 734.2618zM62.33969 730.3857C 62.14211 730.2365 61.96318 730.097 61.80291 729.9675C 61.64265 729.838 61.47031 729.6997 61.28589 729.5526C 61.10367 729.4055 60.93353 729.2639 60.77546 729.1278C 60.61739 728.9917 60.50322 728.8874 60.43297 728.8149C 60.34076 728.7337 60.24636 728.647 60.14976 728.5548C 60.05536 728.4626 59.88192 728.2803 59.62945 728.0081L59.62945 728.0081L58.67115 729.2299C 58.98289 729.5043 59.13877 729.7579 59.13877 729.9906L59.13877 729.9906L59.13877 734.3639L59.13877 734.3639L57.39671 734.3639L57.39671 734.3639L57.39671 735.9479L57.39671 735.9479L60.66678 735.9479L60.66678 735.9479L60.44285 730.4385C 60.34625 730.5504 60.35394 730.6569 60.4659 730.7579C 60.57787 730.8611 60.69423 730.9664 60.81498 731.074C 60.93572 731.1816 61.04988 731.2848 61.15746 731.3836C 61.26723 731.4846 61.44616 731.6393 61.69424 731.8479L61.69424 731.8479L62.33969 730.3857zM70.12466 729.6481L70.12466 728.1036L70.12466 728.1036L60.93023 728.1036L60.93023 728.1036L60.93023 729.6481L60.93023 729.6481L62.42861 729.6481L62.42861 729.6481L62.42861 736.3167L62.42861 736.3167L64.02578 736.2311L64.02578 736.2311L64.02578 729.6481L64.02578 729.6481L65.18166 729.6481L65.18166 729.6481L65.18166 737.6833L65.18166 737.6833L61.8095 737.6833L61.8095 737.6833L61.8095 739.2805L61.8095 739.2805L69.78546 739.2805L69.78546 739.2805L69.78546 737.6833L69.78546 737.6833L66.79201 737.6833L66.79201 737.6833L66.79201 734.7623L66.79201 734.7623L69.50225 734.7623L69.50225 734.7623L69.50225 733.1619L69.50225 733.1619L66.79201 733.1619L66.79201 733.1619L66.79201 729.6481L66.79201 729.6481L70.12466 729.6481zM60.20904 736.2146C 59.9851 736.5352 59.79959 736.7997 59.6525 737.0082C 59.50541 737.219 59.34734 737.4352 59.17829 737.657C 59.01144 737.8787 58.84678 738.0884 58.68432 738.286C 58.52186 738.4836 58.30012 738.7251 58.01911 739.0105L58.01911 739.0105L59.29026 739.926C 59.53395 739.6647 59.73702 739.4364 59.89948 739.241C 60.06194 739.0456 60.2277 738.8458 60.39675 738.6417C 60.56579 738.4396 60.72496 738.2377 60.87425 738.0357C 61.02573 737.8337 61.19698 737.5933 61.38798 737.3145L61.38798 737.3145L60.20904 736.2146zM50.72812 731.4099L50.72812 729.6613L50.72812 729.6613L53.78085 729.6613L53.78085 729.6613L53.78085 731.4099L53.78085 731.4099L50.72812 731.4099zM49.22316 732.8589L55.28581 732.8589L55.28581 732.8589L55.28581 727.4713L55.28581 727.4713L53.78085 727.4713L53.78085 727.4713L53.78085 728.2255L53.78085 728.2255L50.72812 728.2255L50.72812 728.2255L50.72812 727.4713L50.72812 727.4713L49.22316 727.4713L49.22316 727.4713L49.22316 732.8589zM50.92241 737.3507C 51.11122 737.129 51.33295 736.8787 51.58762 736.5999C 51.84449 736.3211 52.06403 736.1104 52.24625 735.9677C 52.46579 736.1652 52.71497 736.4429 52.99379 736.8008C 53.27261 737.1586 53.45922 737.4166 53.55362 737.5746L53.55362 737.5746L51.09695 737.6109C 51.11451 737.5911 51.09475 737.5385 51.03767 737.4528C 50.98278 737.3672 50.94436 737.3332 50.92241 737.3507zM48.03104 732.9939C 47.75442 733.4001 47.53927 733.702 47.38559 733.8995C 47.23191 734.0971 47.19459 734.2266 47.27362 734.2881L47.27362 734.2881L47.42181 727.5668L47.42181 727.5668L45.93332 727.5668L45.93332 727.5668L46.21323 734.1992C 46.20665 733.6152 46.08151 733.0609 45.83782 732.5362C 45.59412 732.0137 45.24176 731.4011 44.78072 730.6986L44.78072 730.6986L43.55897 731.6832C 44.1188 732.5505 44.57325 733.3594 44.92233 734.1103C 45.27359 734.8611 45.53375 735.5615 45.7028 736.2113L45.7028 736.2113L44.27358 736.2113L44.27358 736.2113L44.27358 737.7294L44.27358 737.7294L45.93332 737.7294L45.93332 737.7294L45.93332 740.173L45.93332 740.173L47.42181 740.0873L47.42181 740.0873L47.42181 737.7294L47.42181 737.7294L48.83786 737.7294L48.83786 737.7294L48.83786 736.2113L48.83786 736.2113L47.42181 736.2113L47.42181 736.2113L47.31314 735.691L47.31314 735.691L47.44486 735.9413C 47.78735 735.5878 48.06946 735.2816 48.2912 735.0225C 48.51513 734.7634 48.78297 734.4363 49.09472 734.0411L49.09472 734.0411L48.03104 732.9939zM53.49435 735.0587C 54.19249 734.6042 55.3374 734.174 56.92908 733.7678L56.92908 733.7678L56.32644 732.3386C 55.31874 732.6196 54.49546 732.905 53.85659 733.1948C 53.21772 733.4846 52.69411 733.7711 52.28577 734.0543C 51.90596 733.7755 51.4087 733.478 50.79398 733.1619C 50.17926 732.8457 49.3944 732.5142 48.43939 732.1674L48.43939 732.1674L47.72807 733.5043C 48.65893 733.8337 49.39001 734.1301 49.9213 734.3935C 50.45478 734.657 50.83569 734.8699 51.06401 735.0323C 50.73031 735.3287 50.41417 735.6789 50.11559 736.0829C 49.93337 735.8238 49.59308 735.4254 49.09472 734.8875L49.09472 734.8875L47.93225 735.882C 48.33401 736.2838 48.65893 736.657 48.90701 737.0016C 49.15729 737.3485 49.3922 737.7053 49.61174 738.072C 49.83348 738.4385 50.03217 738.7997 50.2078 739.1554C 50.38563 739.511 50.55468 739.9172 50.71494 740.3738L50.71494 740.3738L52.26271 739.9753C 52.10464 739.6043 51.98938 739.3321 51.91693 739.1587C 51.84449 738.9852 51.77972 738.9095 51.72264 738.9315L51.72264 738.9315L55.47351 739.0236L55.47351 739.0236L55.47351 737.7789C 55.13103 737.1795 54.78635 736.6394 54.43947 736.1586C 54.09479 735.68 53.77975 735.3134 53.49435 735.0587zM37.30202 730.8501C 37.83112 730.6964 38.32289 730.5383 38.77734 730.3759C 39.2318 730.2134 39.68625 730.0433 40.1407 729.8655C 40.59735 729.6898 41.03863 729.5131 41.46454 729.3353C 41.89045 729.1596 42.34051 728.9642 42.81472 728.7491L42.81472 728.7491L42.24501 727.1947C 41.74665 727.4801 41.28232 727.7227 40.85202 727.9225C 40.42171 728.1223 39.97385 728.3188 39.50842 728.512C 39.04519 728.703 38.58964 728.883 38.14177 729.0521C 37.6961 729.2233 37.19445 729.4011 36.63681 729.5855L36.63681 729.5855L37.30202 730.8501zM37.78611 732.6086C 37.76196 732.3145 37.7455 732.0828 37.73671 731.9138C 37.72793 731.7469 37.71367 731.5955 37.6939 731.4594C 37.60609 730.9631 37.44473 730.5208 37.20982 730.1322C 36.9749 729.7436 36.62803 729.3923 36.16919 729.0784C 35.71254 728.7645 35.13514 728.4747 34.437 728.209C 33.73885 727.9412 32.8058 727.6503 31.63784 727.3363L31.63784 727.3363L30.9364 728.8479C 32.13949 729.1245 33.05278 729.3671 33.67628 729.5757C 34.30198 729.7864 34.78497 729.9983 35.12526 730.2112C 35.46555 730.4242 35.70266 730.6382 35.83658 730.8534C 35.9705 731.0685 36.04953 731.3068 36.07368 731.568C 36.09125 731.6624 36.10442 731.7996 36.1132 731.9796C 36.12198 732.1597 36.13845 732.3891 36.1626 732.6679L36.1626 732.6679L37.78611 732.6086zM39.75541 729.8029L39.75541 732.4604L39.75541 732.4604L34.06817 732.4604L34.06817 732.4604L34.06817 729.8029L34.06817 729.8029L32.51052 729.8029L32.51052 729.8029L32.51052 733.9522L32.51052 733.9522L41.32623 733.9522L41.32623 733.9522L41.32623 729.8029L41.32623 729.8029L39.75541 729.8029zM34.59507 736.3134C 34.40626 736.0873 34.17794 735.8557 33.9101 735.6185C 33.64226 735.3837 33.35136 735.1432 33.03742 734.8973C 32.72347 734.6515 32.41941 734.421 32.12522 734.2058C 31.83323 733.9907 31.53685 733.7963 31.23607 733.6229L31.23607 733.6229L30.39633 734.8513C 30.6949 735.0313 30.9836 735.2179 31.26242 735.4111C 31.54124 735.6064 31.83213 735.8228 32.1351 736.0598C 32.43807 736.2969 32.72347 736.5231 32.99131 736.7382C 33.26135 736.9534 33.52261 737.1971 33.77508 737.4693L33.77508 737.4693L34.27563 736.7876L34.27563 736.7876L34.59507 736.3134zM38.751 736.9424C 39.01225 736.556 39.48537 736.2036 40.17034 735.8853C 40.85751 735.567 41.91679 735.2662 43.34821 734.983L43.34821 734.983L42.68629 733.5472C 41.36904 733.8568 40.33719 734.1838 39.59075 734.5285C 38.8443 734.8754 38.34265 735.2036 38.08579 735.5132C 37.88381 735.2212 37.43375 734.9006 36.7356 734.5516C 36.03965 734.2025 35.06269 733.8776 33.80472 733.5768L33.80472 733.5768L33.17573 734.9303C 34.0539 735.1432 34.7224 735.3298 35.18124 735.4901C 35.64009 735.6526 36.01221 735.8173 36.29762 735.9841C 36.58522 736.1509 36.79817 736.3244 36.93649 736.5044C 37.07479 736.6844 37.167 736.8787 37.21311 737.0873C 37.23945 737.1817 37.26141 737.2805 37.27897 737.3837C 37.29653 737.4891 37.33825 737.6438 37.40411 737.848L37.40411 737.848L38.91566 737.7822C 38.86296 737.5253 38.82784 737.3518 38.81028 737.2618C 38.79491 737.1718 38.77844 737.0774 38.76088 736.9786L38.76088 736.9786L38.751 736.9424zM33.77837 736.9622C 33.4754 737.2432 33.22622 737.4605 33.03083 737.6142C 32.83764 737.7701 32.63895 737.9238 32.43478 738.0752C 32.2306 738.2267 32.03411 738.365 31.8453 738.4902C 31.6565 738.6175 31.40842 738.769 31.10106 738.9446L31.10106 738.9446L31.88482 740.1499C 32.19657 739.9852 32.46002 739.8337 32.67517 739.6954C 32.89032 739.5593 33.10767 739.4155 33.32721 739.264C 33.54676 739.1125 33.75312 738.96 33.94632 738.8063C 34.14172 738.6548 34.35796 738.4693 34.59507 738.2498L34.59507 738.2498L33.77837 736.9622zM36.43922 737.6537C 36.3075 737.4429 36.13076 737.2026 35.90903 736.9325C 35.68949 736.6625 35.40298 736.3299 35.04952 735.9347L35.04952 735.9347L33.8607 736.8666C 34.44688 737.4858 34.89694 738.0467 35.21088 738.5494C 35.52483 739.0544 35.83109 739.6537 36.12967 740.3475L36.12967 740.3475L37.62804 740.0281C 37.39752 739.455 37.27129 739.1477 37.24933 739.106L37.24933 739.106L42.38991 739.106L42.38991 739.106L42.38991 737.8611C 42.30429 737.7338 42.20659 737.5922 42.09682 737.4363C 41.98924 737.2827 41.87947 737.1246 41.76751 736.9622C 41.65554 736.8019 41.55016 736.6526 41.45137 736.5143C 41.35477 736.376 41.24719 736.2168 41.12864 736.0368L41.12864 736.0368L39.68954 736.6229C 39.89152 736.86 40.03422 737.0313 40.11765 737.1367C 40.20327 737.2443 40.29218 737.3573 40.38439 737.4759C 40.47879 737.5966 40.56661 737.713 40.64784 737.825C 40.73127 737.9369 40.83335 737.9523 40.95411 737.871L40.95411 737.871L36.43922 737.6537z" stroke="none" fill="#000000" fill-rule="winding" /><path transform="matrix(1 0 0 -1 0 841)" d="M29.97481 672.5496L98.91686 672.5496L98.91686 672.5496L98.91686 657.5622L98.91686 657.5622L29.97481 657.5622z" stroke="none" fill="#FFFFFF" fill-rule="winding" /><path transform="matrix(1 0 0 -1 0 841)" d="M77.73179 663.4971C 78.22575 663.271 78.69557 663.0536 79.14124 662.8451C 79.58911 662.6387 80.04576 662.4203 80.51118 662.1898C 80.97662 661.9593 81.42777 661.7288 81.86466 661.4982C 82.30375 661.2677 82.76259 661.0164 83.2412 660.7441L83.2412 660.7441L82.59245 659.1436C 82.06335 659.4752 81.57706 659.7661 81.13359 660.0163C 80.69231 660.2666 80.24335 660.5125 79.7867 660.754C 79.33224 660.9977 78.88438 661.2315 78.4431 661.4554C 78.00402 661.6793 77.5331 661.9131 77.03035 662.1569L77.03035 662.1569L77.73179 663.4971zM78.09403 665.7892C 78.09403 665.6157 78.09184 665.4456 78.08744 665.2787C 78.08305 665.1141 78.08086 664.9911 78.08086 664.9099C 78.06329 664.2337 77.96999 663.6278 77.80094 663.0921C 77.63409 662.5586 77.32014 662.0668 76.85911 661.6168C 76.40026 661.1667 75.77567 660.7562 74.98531 660.3851C 74.19716 660.0119 73.11153 659.6113 71.72841 659.1832L71.72841 659.1832L70.94464 660.6716C 72.29922 661.0317 73.3168 661.3599 73.99738 661.6563C 74.67796 661.9527 75.19608 662.2633 75.55173 662.5883C 75.90958 662.9131 76.15218 663.2667 76.27952 663.6486C 76.40904 664.0328 76.48589 664.4741 76.51003 664.9725C 76.51003 665.0427 76.51223 665.1613 76.51662 665.3281C 76.52101 665.495 76.52321 665.663 76.52321 665.832L76.52321 665.832L76.52321 666.7541L76.52321 666.7541L78.09403 666.6948L78.09403 666.6948L78.09403 665.7892zM76.08852 668.5521C 76.13462 668.7058 76.19938 668.9407 76.28281 669.2568C 76.36843 669.573 76.41454 669.7453 76.42112 669.7739L76.42112 669.7739L71.50777 669.7739L71.50777 669.7739L71.50777 671.3315L71.50777 671.3315L83.08642 671.3315L83.08642 671.3315L83.08642 669.7739L83.08642 669.7739L78.13684 669.7739C 78.10172 669.6509 78.04134 669.4292 77.95572 669.1086C 77.87229 668.7903 77.8229 668.6048 77.80753 668.5521L77.80753 668.5521L81.85808 668.5521L81.85808 668.5521L81.85808 662.4467L81.85808 662.4467L80.24773 662.4467L80.24773 662.4467L80.24773 667.0076L80.24773 667.0076L74.35962 667.0076L74.35962 667.0076L74.35962 662.394L74.35962 662.394L72.74599 662.394L72.74599 662.394L72.74599 668.5521L72.74599 668.5521L76.08852 668.5521zM70.11148 661.4027L70.11148 659.8582L70.11148 659.8582L57.62722 659.8582L57.62722 659.8582L57.62722 661.4027L57.62722 661.4027L63.04772 661.4027L63.04772 661.4027L63.04772 664.215L63.04772 664.215L58.74689 664.215L58.74689 664.215L58.74689 665.7859L58.74689 665.7859L63.04772 665.7859L63.04772 665.7859L63.04772 668.101L63.04772 668.101L58.19364 668.101L58.19364 668.101L58.19364 669.6586L58.19364 669.6586L63.16627 669.5796C 63.11578 669.562 63.05869 669.6575 62.99503 669.8661C 62.93136 670.0768 62.8666 670.2799 62.80073 670.4753C 62.73487 670.6729 62.67559 670.8474 62.6229 670.9989C 62.57021 671.1526 62.4802 671.3688 62.35287 671.6476L62.35287 671.6476L63.91381 672.0396C 64.03017 671.7914 64.12457 671.5653 64.19702 671.3611C 64.27166 671.1592 64.34521 670.9396 64.41766 670.7025C 64.4923 670.4654 64.56036 670.2338 64.62183 670.0077C 64.6833 669.7838 64.71624 669.6674 64.72063 669.6586L64.72063 669.6586L69.54507 669.6586L69.54507 669.6586L69.54507 668.101L69.54507 668.101L64.67452 668.101L64.67452 668.101L64.67452 665.7859L64.67452 665.7859L68.99181 665.7859L68.99181 665.7859L68.99181 664.215L68.99181 664.215L64.67452 664.215L64.67452 664.215L64.67452 661.4027L64.67452 661.4027L70.11148 661.4027zM56.17495 659.1239C 54.82038 659.5256 53.68095 659.9274 52.75668 660.3292C 51.83241 660.7309 51.06292 661.1656 50.4482 661.6332C 50.2089 661.451 49.88947 661.2424 49.4899 661.0076C 49.09033 660.7726 48.65234 660.5487 48.17594 660.3358C 47.70173 660.1206 47.188 659.912 46.63475 659.7101C 46.08151 659.5059 45.40203 659.2743 44.59631 659.0152L44.59631 659.0152L43.84218 660.5333C 45.28018 660.9307 46.42399 661.3105 47.27362 661.6727C 48.12544 662.035 48.7687 662.3775 49.2034 662.7002C 48.56233 663.3127 47.87626 664.2776 47.14519 665.5948L47.14519 665.5948L48.49208 666.3951C 48.88287 665.6706 49.23523 665.0932 49.54918 664.6629C 49.86531 664.2348 50.14413 663.9077 50.38563 663.6816C 50.62273 663.9231 50.88728 664.2546 51.17928 664.6761C 51.47346 665.0998 51.78631 665.6608 52.11782 666.3589L52.11782 666.3589L53.63924 665.7003C 53.23529 664.9077 52.86426 664.2667 52.52617 663.7771C 52.19027 663.2897 51.89388 662.9197 51.63702 662.6673C 52.06732 662.3599 52.7007 662.0449 53.53716 661.7222C 54.37361 661.4016 55.48779 661.0789 56.87968 660.754L56.87968 660.754L56.17495 659.1239zM44.5008 665.3973C 45.3197 665.9418 46.02991 666.4818 46.63146 667.0175C 47.23301 667.5532 47.83675 668.1723 48.44268 668.8748L48.44268 668.8748L49.59528 667.8046C 48.95641 667.0669 48.30876 666.405 47.65233 665.8188C 46.9981 665.2326 46.25056 664.6377 45.40971 664.0339L45.40971 664.0339L44.5008 665.3973zM55.26276 664.0438C 54.88514 664.4675 54.53497 664.8309 54.21225 665.1339C 53.88952 665.439 53.54813 665.7408 53.18808 666.0394C 52.83023 666.338 52.47567 666.6157 52.1244 666.8726C 51.77314 667.1295 51.38125 667.3918 50.94875 667.6597L50.94875 667.6597L51.90705 668.8715C 52.30443 668.6279 52.68314 668.3787 53.04319 668.124C 53.40324 667.8693 53.76658 667.5982 54.13321 667.3106C 54.50204 667.0252 54.85441 666.7365 55.19031 666.4445C 55.5284 666.1525 55.85991 665.8441 56.18483 665.5192L56.18483 665.5192L55.26276 664.0438zM56.27045 668.585L44.47446 668.585L44.47446 668.585L44.47446 670.1559L44.47446 670.1559L49.88178 670.0307C 49.80275 670.0066 49.73908 670.0692 49.69078 670.2184C 49.64248 670.3699 49.59198 670.5126 49.5393 670.6465C 49.48661 670.7827 49.43501 670.9078 49.38452 671.022C 49.33622 671.1361 49.25279 671.3304 49.13424 671.6049L49.13424 671.6049L50.58981 672.0363C 50.70177 671.7859 50.79178 671.5818 50.85984 671.4237C 50.9279 671.2656 50.99815 671.0977 51.0706 670.9199C 51.14305 670.7421 51.21111 670.5686 51.27478 670.3995C 51.33844 670.2305 51.36369 670.1416 51.35052 670.1328L51.35052 670.1328L56.27045 670.1559L56.27045 670.1559L56.27045 668.585zM36.00453 662.855C 35.74547 663.1777 35.54129 663.4181 35.39201 663.5762C 35.24272 663.7343 35.08245 663.8945 34.91121 664.057C 34.73997 664.2194 34.56543 664.3775 34.3876 664.5312C 34.21197 664.6849 34.15269 664.7947 34.20977 664.8605L34.20977 664.8605L34.3382 659.2918L34.3382 659.2918L32.79373 659.2918L32.79373 659.2918L32.79373 664.0669C 32.52589 663.7595 31.9419 663.2392 31.04178 662.5059L31.04178 662.5059L30.15593 663.8298C 31.09557 664.6574 31.86726 665.4236 32.471 666.1284C 33.07693 666.8353 33.52041 667.4566 33.80143 667.9922L33.80143 667.9922L30.9858 667.9922L30.9858 667.9922L30.9858 669.5499L30.9858 669.5499L32.98802 669.5203C 32.97046 669.5137 32.93643 669.6169 32.88593 669.8298C 32.83764 670.0428 32.78933 670.2491 32.74104 670.449C 32.69274 670.6487 32.64334 670.8364 32.59285 671.0121C 32.54454 671.1877 32.48198 671.4314 32.40514 671.7432L32.40514 671.7432L33.86729 671.9539C 33.9573 671.6949 34.02755 671.4709 34.07805 671.2821C 34.12854 671.0933 34.18123 670.887 34.23612 670.663C 34.291 670.4413 34.34259 670.2119 34.3909 669.9747C 34.44139 669.7376 34.47103 669.596 34.47981 669.5499L34.47981 669.5499L35.6324 669.5499L35.6324 669.5499L35.6324 668.2096C 35.27674 667.4368 34.90462 666.7738 34.51603 666.2206C 34.51823 666.2184 34.63239 666.1306 34.85852 665.9572C 35.08684 665.7859 35.31846 665.6069 35.55337 665.4203C 35.79047 665.2337 36.0166 665.046 36.23175 664.8572C 36.4491 664.6684 36.68072 664.4456 36.92661 664.1887L36.92661 664.1887L36.00453 662.855zM43.21319 661.4686L43.21319 659.9406L43.21319 659.9406L34.98037 659.9406L34.98037 659.9406L34.98037 661.4686L34.98037 661.4686L38.30972 661.4686L38.30972 661.4686L38.30972 666.3853L38.30972 666.3853L35.77401 666.3853L35.77401 666.3853L35.77401 667.9594L35.77401 667.9594L38.30972 667.9594L38.30972 667.9594L38.30972 672.0165L38.30972 672.0165L39.93653 671.9374L39.93653 671.9374L39.93653 667.9594L39.93653 667.9594L42.65995 667.9594L42.65995 667.9594L42.65995 666.3853L42.65995 666.3853L39.93653 666.3853L39.93653 666.3853L39.93653 661.4686L39.93653 661.4686L43.21319 661.4686z" stroke="none" fill="#000000" fill-rule="winding" /><path transform="matrix(1 0 0 -1 0 841)" d="M29.97481 610.3519L112.4055 610.3519L112.4055 610.3519L112.4055 595.3645L112.4055 595.3645L29.97481 595.3645z" stroke="none" fill="#FFFFFF" fill-rule="winding" /><path transform="matrix(1 0 0 -1 0 841)" d="M92.04373 607.4049C 92.04373 607.1569 92.04373 606.9504 92.04373 606.7858C 92.04373 606.6233 92.04153 606.4421 92.03715 606.2424C 92.03275 606.0448 92.02837 605.8429 92.02397 605.6365C 92.01958 605.4323 92.00531 605.3313 91.98116 605.3335L91.98116 605.3335L96.16014 605.3698C 96.13161 605.08 96.10965 604.7902 96.09428 604.5004C 96.08111 604.2106 96.06574 603.8669 96.04818 603.4696C 96.03062 603.0745 96.00756 602.6541 95.97902 602.2084C 95.95267 601.7627 95.92853 601.3401 95.90657 600.9404C 95.88462 600.5409 95.86706 600.1919 95.85388 599.8933C 95.84071 599.5947 95.82973 599.3993 95.82095 599.3071C 95.799 598.9778 95.74301 598.6924 95.653 598.4509C 95.56299 598.2115 95.4137 598.0107 95.20514 597.8483C 94.99876 597.6836 94.73422 597.5607 94.41149 597.4794C 94.08877 597.396 93.6903 597.3345 93.21609 597.2949L93.21609 597.2949L92.08654 597.1995L92.08654 597.1995L91.49378 598.7999L91.49378 598.7999L93.06789 598.9086C 93.34891 598.924 93.56406 598.9481 93.71335 598.9811C 93.86483 599.0162 93.9724 599.0601 94.03607 599.1128C 94.09974 599.1677 94.14694 599.2478 94.17768 599.3531C 94.20841 599.4608 94.23147 599.6254 94.24683 599.8472C 94.25781 599.9174 94.26989 600.0601 94.28306 600.2753C 94.29623 600.4904 94.3094 600.744 94.32258 601.036C 94.33575 601.328 94.35112 601.6376 94.36868 601.9646C 94.38625 602.2939 94.40161 602.6046 94.41479 602.8966C 94.43015 603.1908 94.44442 603.4465 94.4576 603.6639C 94.47077 603.8834 94.53004 603.9899 94.63542 603.9833L94.63542 603.9833L91.9614 603.8253C 91.92628 603.16 91.84065 602.5015 91.70454 601.8494C 91.57062 601.1974 91.36205 600.5958 91.07884 600.0448C 90.79783 599.4958 90.43449 598.98 89.98882 598.4969C 89.54534 598.014 88.94051 597.4772 88.1743 596.8866L88.1743 596.8866L86.94267 597.9965C 87.71985 598.5936 88.30383 599.0952 88.69462 599.5013C 89.0876 599.9097 89.40264 600.3368 89.63975 600.7823C 89.87904 601.228 90.05468 601.7166 90.16665 602.2478C 90.28081 602.7814 90.35106 603.3071 90.37741 603.8253L90.37741 603.8253L87.80218 603.8253L87.80218 603.8253L87.80218 605.3698L87.80218 605.3698L90.45315 605.3599C 90.44656 605.3577 90.44547 605.4608 90.44986 605.6694C 90.45425 605.8801 90.45864 606.0865 90.46303 606.2886C 90.46961 606.4905 90.47291 606.6716 90.47291 606.8319C 90.47291 606.9922 90.47291 607.2062 90.47291 607.474L90.47291 607.474L92.04373 607.4049zM96.94061 608.9559L96.94061 607.3719L96.94061 607.3719L87.64411 607.3719L87.64411 607.3719L87.64411 604.1315C 87.64411 603.3324 87.61447 602.6211 87.55519 601.9976C 87.49592 601.3762 87.39932 600.7922 87.2654 600.2456C 87.13148 599.7012 86.95584 599.1776 86.73849 598.6748C 86.52335 598.1742 86.21159 597.5717 85.80325 596.8668L85.80325 596.8668L84.34769 597.6276C 84.72969 598.2841 85.02058 598.8263 85.22037 599.2544C 85.42234 599.6825 85.5859 600.1271 85.71104 600.5881C 85.83838 601.0514 85.93058 601.5574 85.98766 602.1062C 86.04475 602.6552 86.07329 603.2939 86.07329 604.0228L86.07329 604.0228L86.07329 608.9559L86.07329 608.9559L96.94061 608.9559zM70.86231 599.3301C 71.27066 599.4136 71.66364 599.4926 72.04126 599.5673C 72.41887 599.644 72.81185 599.7253 73.2202 599.8109C 73.62855 599.8966 74.02811 599.9833 74.4189 600.071C 74.81187 600.1611 75.24876 600.2731 75.72956 600.407L75.72956 600.407L75.81519 598.8724C 75.38488 598.7604 74.98641 598.6616 74.61977 598.576C 74.25534 598.4926 73.88212 598.4081 73.50011 598.3224C 73.11811 598.2368 72.74709 598.1534 72.38703 598.0721C 72.02699 597.991 71.61864 597.9042 71.16199 597.812L71.16199 597.812L70.86231 599.3301zM80.21481 599.1392L83.45195 599.1392L83.45195 599.1392L83.45195 597.6605L83.45195 597.6605L75.51221 597.6605L75.51221 597.6605L75.51221 599.1392L75.51221 599.1392L78.65386 599.1392L78.65386 599.1392L78.65386 601.3159L78.65386 601.3159L76.30915 601.3159L76.30915 601.3159L76.30915 602.8208L76.30915 602.8208L82.72088 602.8208L82.72088 602.8208L82.72088 601.3159L82.72088 601.3159L80.21481 601.3159L80.21481 601.3159L80.21481 599.1392zM75.08082 604.0393C 75.76798 604.272 76.35965 604.5179 76.85581 604.777C 77.35417 605.0382 77.83607 605.3291 78.3015 605.6497C 78.76912 605.9724 79.20162 606.3148 79.59899 606.6771C 79.99856 607.0393 80.22249 607.2534 80.27079 607.3192L80.27079 607.3192L76.28281 607.3192L76.28281 607.3192L76.28281 608.8506L76.28281 608.8506L82.38498 608.8506L82.38498 608.8506L82.38498 607.5333C 82.07104 607.114 81.76258 606.7418 81.45961 606.417C 81.15884 606.092 80.92173 605.8691 80.74829 605.7484C 80.76147 605.7748 80.90088 605.722 81.16652 605.5903C 81.43436 605.4586 81.71538 605.3181 82.00956 605.1688C 82.30595 605.0195 82.60123 604.8625 82.89542 604.698C 83.1918 604.5355 83.54636 604.3258 83.9591 604.069L83.9591 604.069L83.21485 602.6693C 82.77796 602.9745 82.39706 603.2227 82.07213 603.4136C 81.7494 603.6046 81.42668 603.7891 81.10395 603.9669C 80.78342 604.1469 80.47826 604.3104 80.18846 604.4575C 79.89867 604.6046 79.70766 604.7012 79.61546 604.7473C 78.66484 604.014 77.44968 603.3126 75.96996 602.6431L75.96996 602.6431L75.08082 604.0393zM72.20262 604.204C 72.11919 604.1952 72.03248 604.1842 71.94246 604.171C 71.85245 604.1578 71.65376 604.1315 71.34641 604.092L71.34641 604.092L70.99404 605.5015C 71.28164 605.6002 71.44191 605.6617 71.47484 605.6859C 71.50777 605.7123 71.55717 605.7649 71.62303 605.844C 71.77012 606.0327 71.93368 606.2655 72.11371 606.5421C 72.29373 606.8209 72.47375 607.1217 72.65378 607.4445C 72.836 607.7693 73.01382 608.1052 73.18726 608.4521C 73.3607 608.799 73.54951 609.215 73.75368 609.7002L73.75368 609.7002L75.16315 609.1272C 74.96117 608.6573 74.77785 608.2589 74.61319 607.9318C 74.44853 607.6046 74.27509 607.2809 74.09288 606.9603C 73.91066 606.642 73.72514 606.3368 73.53634 606.0448C 73.34972 605.7528 73.12579 605.5641 72.86454 605.4784C 72.85796 605.6387 72.92491 605.7231 73.06542 605.7319C 73.20812 605.7429 73.36729 605.7528 73.54292 605.7616C 73.72076 605.7704 73.90078 605.7792 74.083 605.788C 74.26522 605.7968 74.3684 605.8011 74.39256 605.8011C 74.50891 605.99 74.64503 606.2128 74.8009 606.4696C 74.95677 606.7288 75.14119 607.0547 75.35415 607.4478L75.35415 607.4478L76.69115 606.7561C 76.38819 606.2161 76.10059 605.7264 75.82835 605.2874C 75.55612 604.8483 75.2817 604.4224 75.00507 604.0096C 74.73064 603.5991 74.46609 603.2161 74.21143 602.8604C 73.95676 602.5048 73.73392 602.3159 73.54292 602.2939C 73.52536 602.4257 73.64391 602.5092 73.89858 602.5442C 74.15545 602.5815 74.4156 602.6178 74.67905 602.653C 74.9447 602.6902 75.1851 602.7242 75.40025 602.755C 75.6154 602.788 75.8547 602.8263 76.11815 602.8702L76.11815 602.8702L76.1445 601.306C 75.89642 601.2797 75.62638 601.2456 75.33439 601.204C 75.0424 601.1644 74.72296 601.1216 74.37608 601.0754C 74.0314 601.0316 73.70428 600.9888 73.39473 600.947C 73.08518 600.9076 72.87222 600.879 72.75587 600.8615C 72.61536 600.8439 72.48254 600.8241 72.3574 600.8021C 72.23445 600.7802 72.00723 600.722 71.67572 600.6277L71.67572 600.6277L71.32336 602.1128C 71.67023 602.2335 71.8766 602.3137 71.94246 602.3533C 72.01052 602.3949 72.08407 602.4674 72.1631 602.5706C 72.37606 602.8164 72.61755 603.1304 72.88759 603.5125C 73.15982 603.8966 73.33656 604.1512 73.41779 604.2764L73.41779 604.2764L72.20262 604.204zM66.61089 599.1227L66.61089 599.8307L66.61089 599.8307L61.63826 599.8307L61.63826 599.8307L61.63826 599.1227L61.63826 599.1227L66.61089 599.1227zM66.61089 601.9351L61.63826 601.9351L61.63826 601.9351L61.63826 601.2434L61.63826 601.2434L66.61089 601.2434L66.61089 601.2434L66.61089 601.9351zM65.24094 604.2567C 64.9248 604.0261 64.56365 603.788 64.1575 603.542C 63.75135 603.2961 63.53071 603.1996 63.49558 603.2522L63.49558 603.2522L68.16853 603.3445L68.16853 603.3445L68.16853 597.0414L68.16853 597.0414L66.61089 597.0414L66.61089 597.0414L66.61089 597.7133L66.61089 597.7133L61.63826 597.7133L61.63826 597.7133L61.63826 597.0414L61.63826 597.0414L60.06743 597.0414L60.06743 597.0414L60.06743 601.5101C 59.96645 601.4663 59.72165 601.3652 59.33307 601.2073C 58.94448 601.0492 58.4538 600.8549 57.86103 600.6244L57.86103 600.6244L57.33414 602.1194C 58.68871 602.6002 59.83142 603.047 60.76228 603.4597C 61.69314 603.8746 62.25298 604.1403 62.44178 604.2567L62.44178 604.2567L57.91043 604.2567L57.91043 604.2567L57.91043 605.7057L57.91043 605.7057L62.34628 605.7057L62.34628 605.7057L62.34628 606.8451L62.34628 606.8451L59.13877 606.8451L59.13877 606.8451L59.13877 608.271L59.13877 608.271L62.34628 608.271L62.34628 608.271L62.34628 609.776L62.34628 609.776L63.93357 609.7167L63.93357 609.7167L63.93357 608.271L63.93357 608.271L66.91385 608.271L66.91385 608.271L66.91385 606.8451L66.91385 606.8451L63.93357 606.8451L63.93357 606.8451L63.93357 605.7057L63.93357 605.7057L64.66794 605.7057C 65.27827 606.1556 65.84578 606.6584 66.37048 607.2139C 66.89519 607.7693 67.44953 608.4532 68.03352 609.2655L68.03352 609.2655L69.30466 608.3994C 68.80411 607.6859 68.33868 607.0865 67.90838 606.6013C 67.47807 606.1162 67.19596 605.8176 67.06204 605.7057L67.06204 605.7057L70.12466 605.7057L70.12466 605.7057L70.12466 604.2567L70.12466 604.2567L65.24094 604.2567zM52.87194 599.2148C 52.88731 599.2764 52.90268 599.3971 52.91805 599.5771C 52.93561 599.7594 52.95976 600.0448 52.9905 600.4333L52.9905 600.4333L54.35385 599.9393C 54.33629 599.6693 54.31543 599.4377 54.29128 599.2445C 54.26933 599.0513 54.24957 598.8899 54.23201 598.7604C 54.19029 598.5057 54.13321 598.2906 54.06076 598.115C 53.99051 597.9393 53.88074 597.7922 53.73145 597.6737C 53.58436 597.553 53.40653 597.4717 53.19796 597.4301C 52.9894 597.3883 52.73912 597.3575 52.44713 597.3378C 52.11562 597.3202 51.77204 597.3114 51.41638 597.3114C 51.06292 597.3114 50.72043 597.3202 50.38892 597.3378C 50.1123 597.3575 49.8719 597.3916 49.66773 597.4398C 49.46575 597.4882 49.2967 597.5771 49.16058 597.7067C 49.02447 597.8362 48.92897 597.9998 48.87408 598.1973C 48.8192 598.3949 48.79176 598.6331 48.79176 598.9119L48.79176 598.9119L48.79176 601.0558L48.79176 601.0558L50.24073 600.9701L50.24073 600.9701L50.24073 599.1425C 50.24073 599.0217 50.24732 598.9371 50.26049 598.8888C 50.27366 598.8428 50.28793 598.812 50.3033 598.7966C 50.31867 598.7834 50.35928 598.7692 50.42515 598.7538C 50.49321 598.7385 50.59749 598.7275 50.738 598.7209C 50.9729 598.7012 51.22428 598.6913 51.49212 598.6913C 51.75996 598.6913 52.01244 598.7012 52.24954 598.7209C 52.4142 598.7275 52.53165 598.7396 52.60191 598.7571C 52.67435 598.7769 52.72156 598.7966 52.74351 598.8164C 52.76766 598.8384 52.78852 598.8779 52.80608 598.9349C 52.82584 598.9921 52.84779 599.0853 52.87194 599.2148zM45.98601 598.1874C 46.24507 598.5167 46.43936 598.7845 46.56889 598.991C 46.70061 599.1973 46.82795 599.4081 46.95089 599.6232C 47.07603 599.8406 47.19349 600.0546 47.30326 600.2654C 47.41303 600.4762 47.54366 600.766 47.69514 601.1348L47.69514 601.1348L48.98605 600.5486C 48.70723 599.9404 48.43719 599.4004 48.17594 598.9283C 47.91468 598.4585 47.60074 597.9591 47.2341 597.4301L47.2341 597.4301L45.98601 598.1874zM54.99272 601.3522C 55.21665 601.058 55.40546 600.7955 55.55914 600.5651C 55.71501 600.3368 55.86979 600.0996 56.02347 599.8538C 56.17934 599.6101 56.32753 599.3641 56.46804 599.1161C 56.61074 598.868 56.75674 598.5881 56.90603 598.2764L56.90603 598.2764L55.72379 597.3575C 55.55255 597.7769 55.40216 598.1117 55.27264 598.3619C 55.1453 598.6122 55.00919 598.8625 54.86429 599.1128C 54.71939 599.3652 54.57449 599.6013 54.42959 599.8208C 54.28469 600.0426 54.09479 600.3071 53.85988 600.6145L53.85988 600.6145L54.99272 601.3522zM51.33076 601.7374C 51.52396 601.5026 51.68532 601.3104 51.81485 601.1611C 51.94438 601.0118 52.075 600.8527 52.20673 600.6836C 52.34065 600.5167 52.46689 600.3542 52.58544 600.1962C 52.70619 600.0404 52.84669 599.8406 53.00696 599.5969L53.00696 599.5969L51.95975 598.6155C 51.77094 598.9404 51.62165 599.1885 51.51188 599.3597C 51.40211 599.5332 51.28575 599.7078 51.16281 599.8834C 51.03986 600.0612 50.91912 600.2247 50.80056 600.374C 50.68421 600.5255 50.51077 600.7188 50.28025 600.9536L50.28025 600.9536L51.33076 601.7374zM55.85552 600.4268C 55.35497 600.8593 54.87087 601.2335 54.40325 601.5497C 53.93782 601.868 53.38787 602.1853 52.75339 602.5015L52.75339 602.5015L53.39885 603.6145C 54.01137 603.2939 54.5701 602.9855 55.07505 602.6891C 55.57999 602.3949 56.09592 602.0602 56.62282 601.6847L56.62282 601.6847L55.85552 600.4268zM46.45363 601.5859C 47.06396 601.9459 47.58208 602.2764 48.00799 602.5771C 48.4361 602.8779 48.8664 603.2325 49.2989 603.6409L49.2989 603.6409L50.21109 602.6595C 49.91691 602.3938 49.67102 602.1787 49.47343 602.014C 49.27584 601.8494 49.06728 601.6847 48.84774 601.52C 48.6282 601.3555 48.39987 601.193 48.16277 601.0327C 47.92566 600.8746 47.62379 600.6803 47.25716 600.4498L47.25716 600.4498L46.45363 601.5859zM53.97185 604.4806L53.97185 604.6354L53.97185 604.6354L49.25608 604.6354L49.25608 604.6354L49.25608 604.4806L49.25608 604.4806L53.97185 604.4806zM49.25608 606.0382L49.25608 605.8966L49.25608 605.8966L53.97185 605.8966L53.97185 605.8966L53.97185 606.0382L53.97185 606.0382L49.25608 606.0382zM55.50315 603.2194L52.45372 603.2194L52.45372 603.2194L52.45372 602.6068C 52.45372 602.3698 52.44054 602.1633 52.4142 601.9877C 52.38785 601.812 52.32089 601.6583 52.21332 601.5266C 52.10794 601.3949 51.96523 601.3005 51.78521 601.2434C 51.60519 601.1864 51.38015 601.1436 51.11012 601.115L51.11012 601.115L49.92788 600.9998L49.92788 600.9998L49.47343 602.3762L49.47343 602.3762L50.57663 602.4553C 50.70616 602.4619 50.79947 602.4718 50.85655 602.485C 50.91363 602.4982 50.94436 602.5059 50.94875 602.5081C 50.95534 602.5125 50.96083 602.531 50.96522 602.564C 50.97181 602.5991 50.9751 602.677 50.9751 602.7979L50.9751 602.7979L50.9751 603.2194L50.9751 603.2194L47.73795 603.2194L47.73795 603.2194L47.73795 607.3127L47.73795 607.3127L50.37904 607.3127C 50.39222 607.3478 50.42405 607.4456 50.47454 607.6057C 50.52723 607.766 50.58541 607.9988 50.64908 608.304L50.64908 608.304L52.22978 607.9845L52.22978 607.9845L52.00585 607.3127L52.00585 607.3127L55.50315 607.3127L55.50315 607.3127L55.50315 603.2194zM47.01676 604.7374C 47.01676 603.8417 46.99151 603.047 46.94101 602.3533C 46.89052 601.6594 46.806 601.0184 46.68744 600.4301C 46.56889 599.8417 46.41082 599.2874 46.21323 598.767C 46.01564 598.2467 45.72256 597.6232 45.33397 596.8965L45.33397 596.8965L43.96732 597.7461C 44.33176 598.429 44.60289 599.002 44.78072 599.4652C 44.96075 599.9305 45.10345 600.4147 45.20883 600.9175C 45.3164 601.4224 45.38885 601.9756 45.42617 602.5771C 45.46569 603.1787 45.48545 603.89 45.48545 604.7111L45.48545 604.7111L45.48545 609.147L45.48545 609.147L56.55366 609.147L56.55366 609.147L56.55366 607.7506L56.55366 607.7506L47.01676 607.7506L47.01676 607.7506L47.01676 604.7374zM30.28436 598.5728C 30.69271 599.2094 31.02531 599.8197 31.28218 600.4037C 31.53904 600.9877 31.79152 601.6354 32.0396 602.3467L32.0396 602.3467L33.44577 601.8494C 33.16475 601.0721 32.89142 600.3762 32.62578 599.7615C 32.36233 599.1469 32.04399 598.5156 31.67077 597.868L31.67077 597.868L30.28436 598.5728zM40.9574 602.7814C 41.20548 602.4388 41.42722 602.1139 41.62261 601.8065C 41.8202 601.5015 42.01339 601.1809 42.2022 600.845C 42.3932 600.509 42.57542 600.1787 42.74886 599.8538C 42.9223 599.531 43.08915 599.1885 43.24942 598.8263L43.24942 598.8263L41.9618 597.8087C 41.77299 598.2896 41.59736 598.6957 41.4349 599.0272C 41.27244 599.3586 41.0979 599.6924 40.91129 600.0283C 40.72468 600.3663 40.53807 600.6858 40.35146 600.9866C 40.16485 601.2896 39.94421 601.6222 39.68954 601.9844L39.68954 601.9844L40.9574 602.7814zM38.68184 599.2083C 38.72356 599.3905 38.75539 599.5947 38.77734 599.8208C 38.7993 600.0492 38.82894 600.4004 38.86626 600.8746L38.86626 600.8746L40.37451 600.2819C 40.3328 599.8582 40.29109 599.5024 40.24937 599.2148C 40.20766 598.9272 40.14948 598.6517 40.07484 598.3883C 39.97824 598.0568 39.77846 597.8197 39.47549 597.677C 39.17472 597.5343 38.72246 597.4475 38.11872 597.4169C 37.29105 597.3729 36.46776 597.3729 35.64887 597.4169C 35.35249 597.4257 35.09233 597.4629 34.8684 597.5288C 34.64447 597.5924 34.45676 597.6968 34.30527 597.8417C 34.15598 597.9866 34.04841 598.1643 33.98255 598.3751C 33.91888 598.5881 33.88705 598.8439 33.88705 599.1425L33.88705 599.1425L33.88705 602.699L33.88705 602.699L35.44469 602.6299L35.44469 602.6299L35.44469 599.4783C 35.44469 599.3181 35.45128 599.2017 35.46445 599.1293C 35.47982 599.059 35.49849 599.0129 35.52044 598.991C 35.54239 598.9712 35.5874 598.9514 35.65546 598.9316C 35.72571 598.9141 35.83658 598.902 35.98806 598.8954C 36.66206 598.8582 37.33495 598.8582 38.00675 598.8954C 38.27898 598.9108 38.45242 598.9404 38.52707 598.9844C 38.6039 599.0305 38.6555 599.1051 38.68184 599.2083zM37.67414 599.6265C 37.48973 600.0261 37.33605 600.3357 37.21311 600.5552C 37.09016 600.7748 36.95624 600.9965 36.81134 601.2203C 36.66645 601.4465 36.52155 601.6594 36.37665 601.8593C 36.23175 602.0613 36.04185 602.2994 35.80694 602.5739L35.80694 602.5739L36.93978 603.4136C 37.1659 603.1677 37.35801 602.9427 37.51608 602.7385C 37.67414 602.5365 37.82782 602.3258 37.97711 602.1062C 38.1286 601.8867 38.2724 601.6704 38.40851 601.4575C 38.54463 601.2445 38.69282 601.0042 38.85308 600.7363L38.85308 600.7363L37.67414 599.6265zM36.05722 606.3741L31.04178 606.3741L31.04178 606.3741L31.04178 607.9054L31.04178 607.9054L36.05722 607.9054L36.05722 607.9054L36.05722 609.776L36.05722 609.776L37.68402 609.7167L37.68402 609.7167L37.68402 607.9054L37.68402 607.9054L42.7291 607.9054L42.7291 607.9054L42.7291 606.3741L42.7291 606.3741L37.68402 606.3741L37.68402 606.3741L37.68402 604.7473L37.68402 604.7473L42.24172 604.7473L42.24172 604.7473L42.24172 603.2194L42.24172 603.2194L31.53904 603.2194L31.53904 603.2194L31.53904 604.7473L31.53904 604.7473L36.05722 604.7473L36.05722 604.7473L36.05722 606.3741z" stroke="none" fill="#000000" fill-rule="winding" /><path transform="matrix(1 0 0 -1 0 841)" d="M29.97481 524.9237L98.91686 524.9237L98.91686 524.9237L98.91686 509.9363L98.91686 509.9363L29.97481 509.9363z" stroke="none" fill="#FFFFFF" fill-rule="winding" /><path transform="matrix(1 0 0 -1 0 841)" d="M78.55507 521.9767C 78.55507 521.7286 78.55507 521.5222 78.55507 521.3575C 78.55507 521.1951 78.55287 521.014 78.54848 520.8142C 78.54409 520.6166 78.5397 520.4147 78.53531 520.2083C 78.53092 520.0042 78.51665 519.9031 78.4925 519.9053L78.4925 519.9053L82.67148 519.9415C 82.64294 519.6517 82.62099 519.3619 82.60562 519.0721C 82.59245 518.7823 82.57708 518.4387 82.55952 518.0414C 82.54195 517.6462 82.5189 517.2258 82.49036 516.7802C 82.46401 516.3345 82.43987 515.9119 82.41791 515.5123C 82.39596 515.1127 82.3784 514.7637 82.36522 514.4651C 82.35205 514.1665 82.34107 513.9711 82.33229 513.8789C 82.31033 513.5496 82.25435 513.2642 82.16434 513.0227C 82.07433 512.7833 81.92504 512.5825 81.71648 512.42C 81.5101 512.2554 81.24556 512.1324 80.92283 512.0511C 80.60011 511.9678 80.20164 511.9063 79.72742 511.8668L79.72742 511.8668L78.59788 511.7712L78.59788 511.7712L78.00512 513.3717L78.00512 513.3717L79.57923 513.4805C 79.86024 513.4957 80.07539 513.5199 80.22469 513.5529C 80.37617 513.588 80.48374 513.6318 80.54741 513.6846C 80.61108 513.7395 80.65828 513.8196 80.68902 513.9249C 80.71975 514.0326 80.74281 514.1973 80.75817 514.4189C 80.76915 514.4893 80.78123 514.632 80.7944 514.847C 80.80757 515.0623 80.82074 515.3158 80.83392 515.6078C 80.84708 515.8998 80.86246 516.2094 80.88002 516.5364C 80.89758 516.8657 80.91295 517.1764 80.92612 517.4684C 80.94149 517.7626 80.95576 518.0183 80.96893 518.2357C 80.98211 518.4552 81.04138 518.5618 81.14676 518.5552L81.14676 518.5552L78.47274 518.3971C 78.43761 517.7318 78.35199 517.0732 78.21587 516.4211C 78.08195 515.7692 77.87339 515.1676 77.59018 514.6166C 77.30917 514.0676 76.94582 513.5518 76.50015 513.0687C 76.05668 512.5858 75.45184 512.049 74.68564 511.4584L74.68564 511.4584L73.45401 512.5682C 74.23119 513.1654 74.81517 513.667 75.20596 514.0731C 75.59894 514.4816 75.91398 514.9086 76.15108 515.3542C 76.39038 515.7999 76.56602 516.2883 76.67799 516.8197C 76.79214 517.3531 76.8624 517.8789 76.88875 518.3971L76.88875 518.3971L74.31351 518.3971L74.31351 518.3971L74.31351 519.9415L74.31351 519.9415L76.96449 519.9316C 76.9579 519.9294 76.9568 520.0326 76.9612 520.2412C 76.96558 520.452 76.96998 520.6583 76.97437 520.8604C 76.98095 521.0623 76.98425 521.2434 76.98425 521.4037C 76.98425 521.564 76.98425 521.778 76.98425 522.0459L76.98425 522.0459L78.55507 521.9767zM83.45195 523.5277L83.45195 521.9437L83.45195 521.9437L74.15545 521.9437L74.15545 521.9437L74.15545 518.7034C 74.15545 517.9042 74.12581 517.1929 74.06653 516.5693C 74.00726 515.9481 73.91066 515.3641 73.77673 514.8174C 73.64281 514.2729 73.46718 513.7494 73.24983 513.2466C 73.03468 512.7461 72.72293 512.1434 72.31458 511.4387L72.31458 511.4387L70.85902 512.1993C 71.24103 512.8558 71.53192 513.3981 71.7317 513.8262C 71.93368 514.2543 72.09724 514.6989 72.22238 515.1599C 72.34972 515.6232 72.44192 516.1292 72.499 516.678C 72.55608 517.2269 72.58463 517.8657 72.58463 518.5946L72.58463 518.5946L72.58463 523.5277L72.58463 523.5277L83.45195 523.5277zM57.37365 513.902C 57.782 513.9854 58.17498 514.0643 58.55259 514.139C 58.93021 514.2158 59.32318 514.2971 59.73153 514.3827C 60.13988 514.4684 60.53945 514.5551 60.93023 514.6429C 61.32322 514.7329 61.7601 514.8448 62.2409 514.9788L62.2409 514.9788L62.32652 513.4442C 61.89622 513.3323 61.49775 513.2334 61.13111 513.1478C 60.76667 513.0643 60.39345 512.9799 60.01145 512.8943C 59.62945 512.8086 59.25842 512.7252 58.89837 512.6439C 58.53832 512.5627 58.12997 512.476 57.67333 512.3838L57.67333 512.3838L57.37365 513.902zM66.72614 513.7109L69.96329 513.7109L69.96329 513.7109L69.96329 512.2323L69.96329 512.2323L62.02355 512.2323L62.02355 512.2323L62.02355 513.7109L62.02355 513.7109L65.1652 513.7109L65.1652 513.7109L65.1652 515.8877L65.1652 515.8877L62.82049 515.8877L62.82049 515.8877L62.82049 517.3927L62.82049 517.3927L69.23222 517.3927L69.23222 517.3927L69.23222 515.8877L69.23222 515.8877L66.72614 515.8877L66.72614 515.8877L66.72614 513.7109zM61.59215 518.6111C 62.27932 518.8439 62.87099 519.0897 63.36715 519.3488C 63.86551 519.61 64.3474 519.9009 64.81284 520.2214C 65.28046 520.5442 65.71296 520.8867 66.11033 521.2489C 66.5099 521.6112 66.73383 521.8252 66.78213 521.8911L66.78213 521.8911L62.79415 521.8911L62.79415 521.8911L62.79415 523.4224L62.79415 523.4224L68.89632 523.4224L68.89632 523.4224L68.89632 522.1051C 68.58237 521.6858 68.27392 521.3137 67.97095 520.9888C 67.67017 520.6638 67.43307 520.441 67.25963 520.3202C 67.2728 520.3466 67.41222 520.2939 67.67786 520.1622C 67.9457 520.0304 68.22672 519.8899 68.5209 519.7406C 68.81728 519.5913 69.11256 519.4344 69.40675 519.2698C 69.70313 519.1073 70.05769 518.8976 70.47044 518.6407L70.47044 518.6407L69.72619 517.2412C 69.2893 517.5464 68.90839 517.7944 68.58347 517.9854C 68.26074 518.1764 67.93802 518.3608 67.61529 518.5387C 67.29475 518.7186 66.98959 518.8822 66.6998 519.0293C 66.41 519.1764 66.219 519.2731 66.12679 519.3191C 65.17618 518.5858 63.96101 517.8844 62.4813 517.2148L62.4813 517.2148L61.59215 518.6111zM58.71396 518.7758C 58.63053 518.767 58.54381 518.756 58.4538 518.7428C 58.36379 518.7296 58.1651 518.7034 57.85774 518.6638L57.85774 518.6638L57.50538 520.0732C 57.79298 520.172 57.95324 520.2335 57.98618 520.2577C 58.01911 520.2841 58.0685 520.3367 58.13437 520.4158C 58.28146 520.6045 58.44502 520.8373 58.62504 521.1139C 58.80507 521.3927 58.98509 521.6935 59.16512 522.0162C 59.34734 522.3412 59.52517 522.677 59.6986 523.0239C 59.87204 523.3707 60.06085 523.7869 60.26502 524.272L60.26502 524.272L61.67448 523.699C 61.4725 523.2291 61.28918 522.8307 61.12453 522.5035C 60.95987 522.1765 60.78643 521.8527 60.60421 521.5321C 60.42199 521.2137 60.23648 520.9086 60.04768 520.6166C 59.86106 520.3246 59.63713 520.1359 59.37588 520.0502C 59.36929 520.2104 59.43625 520.295 59.57676 520.3038C 59.71946 520.3147 59.87863 520.3246 60.05426 520.3334C 60.23209 520.3422 60.41211 520.351 60.59433 520.3597C 60.77655 520.3685 60.87974 520.3729 60.90389 520.3729C 61.02024 520.5618 61.15636 520.7845 61.31224 521.0414C 61.46811 521.3005 61.65253 521.6265 61.86548 522.0195L61.86548 522.0195L63.2025 521.3279C 62.89952 520.7878 62.61193 520.2983 62.33969 519.8593C 62.06746 519.4202 61.79303 518.9943 61.51641 518.5814C 61.24199 518.1709 60.97744 517.7878 60.72277 517.4321C 60.4681 517.0765 60.24526 516.8877 60.05426 516.8657C 60.0367 516.9974 60.15525 517.0809 60.40992 517.116C 60.66678 517.1533 60.92694 517.1896 61.19039 517.2247C 61.45604 517.262 61.69643 517.296 61.91159 517.3268C 62.12674 517.3597 62.36604 517.3982 62.62949 517.442L62.62949 517.442L62.65583 515.8778C 62.40775 515.8514 62.13771 515.8174 61.84572 515.7758C 61.55373 515.7362 61.2343 515.6934 60.88742 515.6473C 60.54274 515.6034 60.21563 515.5605 59.90607 515.5188C 59.59652 515.4794 59.38356 515.4508 59.2672 515.4332C 59.1267 515.4156 58.99387 515.3959 58.86873 515.3739C 58.74579 515.3521 58.51857 515.2938 58.18706 515.1995L58.18706 515.1995L57.83469 516.6846C 58.18157 516.8054 58.38794 516.8855 58.4538 516.925C 58.52186 516.9668 58.59541 517.0392 58.67444 517.1423C 58.88739 517.3883 59.12889 517.7021 59.39893 518.0842C 59.67116 518.4684 59.84789 518.723 59.92912 518.8483L59.92912 518.8483L58.71396 518.7758zM47.03981 514.7845C 46.93443 514.8965 46.94211 515.0084 47.06286 515.1204C 47.18581 515.2345 47.31204 515.3521 47.44157 515.4728C 47.5733 515.5957 47.69295 515.7087 47.80052 515.8119C 47.9081 515.9152 48.08593 516.0809 48.33401 516.3092L48.33401 516.3092L48.82468 514.7087C 48.68198 514.5726 48.5327 514.4387 48.37682 514.307C 48.22314 514.1753 48.06068 514.0348 47.88943 513.8855C 47.72039 513.7384 47.55463 513.5946 47.39217 513.4541C 47.23191 513.3158 47.11226 513.2125 47.03322 513.1445C 46.94101 513.0764 46.84771 512.9941 46.75331 512.8976C 46.6611 512.7987 46.50742 512.6067 46.29227 512.3212L46.29227 512.3212L45.25493 513.5397C 45.5074 513.7593 45.65121 513.9075 45.68633 513.9843C 45.72366 514.0612 45.74232 514.1731 45.74232 514.3202L45.74232 514.3202L45.74232 518.4926L45.74232 518.4926L44.12539 518.4926L44.12539 518.4926L44.12539 520.0634L44.12539 520.0634L47.27362 520.0634L47.27362 520.0634L47.03981 514.7845zM52.91146 523.587L52.91146 512.3805L52.91146 512.3805L51.39333 512.3805L51.39333 512.3805L51.39333 523.6495L51.39333 523.6495L52.91146 523.587zM45.77195 524.1897C 46.03979 523.9241 46.26482 523.6847 46.44704 523.4718C 46.63146 523.261 46.81258 523.0437 46.99041 522.8197C 47.16824 522.598 47.33729 522.3718 47.49755 522.1414C 47.66002 521.9108 47.83565 521.6385 48.02446 521.3247L48.02446 521.3247L46.74014 520.126C 46.53815 520.5629 46.36362 520.8965 46.21653 521.1271C 46.06943 521.3575 45.91136 521.587 45.74232 521.8153C 45.57546 522.0437 45.40532 522.2588 45.23188 522.4608C 45.06064 522.6649 44.8378 522.9153 44.56337 523.2117L44.56337 523.2117L45.77195 524.1897zM47.24728 512.262C 47.53049 512.7054 47.74344 513.0544 47.88614 513.3092C 48.02885 513.566 48.14959 513.8295 48.24839 514.0995C 48.34718 514.3695 48.42841 514.6604 48.49208 514.9722C 48.55794 515.2861 48.61063 515.6517 48.65015 516.0688C 48.68967 516.4882 48.71821 516.9711 48.73577 517.5178C 48.75553 518.0667 48.76541 518.7089 48.76541 519.4442L48.76541 519.4442L48.76541 524.1633L48.76541 524.1633L50.29671 524.1007L50.29671 524.1007L50.29671 519.4739C 50.29671 518.688 50.28683 517.993 50.26708 517.3894C 50.24951 516.7878 50.21768 516.2466 50.17158 515.7659C 50.12547 515.2872 50.0651 514.8635 49.99046 514.4948C 49.91801 514.1259 49.82799 513.7745 49.72042 513.4409C 49.61504 513.1094 49.48551 512.7932 49.33183 512.4924C 49.17815 512.1917 48.95422 511.7899 48.66003 511.2872L48.66003 511.2872L47.24728 512.262zM55.59536 524.1139L55.59536 511.6791L55.59536 511.6791L54.09369 511.6791L54.09369 511.6791L54.09369 524.1765L54.09369 524.1765L55.59536 524.1139zM36.87392 515.4695L36.87392 513.7505L36.87392 513.7505L40.48318 513.7505L40.48318 513.7505L40.48318 515.4695L40.48318 515.4695L36.87392 515.4695zM35.34261 516.9481L42.04084 516.9481L42.04084 516.9481L42.04084 511.5573L42.04084 511.5573L40.48318 511.5573L40.48318 511.5573L40.48318 512.2719L40.48318 512.2719L36.87392 512.2719L36.87392 512.2719L36.87392 511.5573L36.87392 511.5573L35.34261 511.5573L35.34261 511.5573L35.34261 516.9481zM37.70378 521.2983C 37.73232 521.3071 37.76635 521.2017 37.80587 520.9822C 37.84758 520.7626 37.88601 520.5376 37.92113 520.3071C 37.95845 520.0765 37.99468 519.8483 38.0298 519.6221C 38.06713 519.3982 38.08688 519.2753 38.08908 519.2533L38.08908 519.2533L39.43926 519.2533C 39.50074 519.4882 39.58307 519.8351 39.68625 520.2939C 39.78943 520.7549 39.85639 521.0754 39.88713 521.2555L39.88713 521.2555L37.70378 521.2983zM35.3459 515.2257L35.44799 514.5309C 35.04184 514.3772 34.65325 514.2389 34.28222 514.116C 33.91119 513.993 33.527 513.8701 33.12963 513.7472C 32.73225 513.6243 32.34476 513.51 31.96715 513.4047C 31.58954 513.3015 31.18229 513.2048 30.7454 513.1149L30.7454 513.1149L30.38645 514.6364C 30.80577 514.7153 31.1746 514.7987 31.49294 514.8866C 31.81347 514.9766 32.0857 515.0524 32.30964 515.1138L32.30964 515.1138L32.30964 519.2731L32.30964 519.2731L30.71576 519.2731L30.71576 519.2731L30.71576 520.778L30.71576 520.778L32.30964 520.778L32.30964 520.778L32.30964 524.1963L32.30964 524.1963L33.84094 524.1567L33.84094 524.1567L33.84094 520.778L33.84094 520.778L35.2965 520.778L35.2965 520.778L35.2965 519.2731L35.2965 519.2731L33.84094 519.2731L33.84094 519.2731L33.84094 515.5814C 33.87168 515.5924 34.00889 515.6396 34.25258 515.723C 34.49847 515.8086 34.819 515.9305 35.21418 516.0886L35.21418 516.0886L35.3459 515.2257zM43.21319 519.2533L43.21319 517.7615L43.21319 517.7615L34.38431 517.7615L34.38431 517.7615L34.38431 519.2533L34.38431 519.2533L36.60388 519.2368C 36.5929 519.2346 36.57095 519.3499 36.53802 519.5825C 36.50728 519.8153 36.47435 520.0447 36.43922 520.2709C 36.40409 520.4991 36.36787 520.7188 36.33055 520.9294C 36.29542 521.1403 36.27786 521.2489 36.27786 521.2555L36.27786 521.2555L34.84534 521.2555L34.84534 521.2555L34.84534 522.7473L34.84534 522.7473L38.01992 522.7473C 38.01334 522.7693 37.96833 522.9142 37.88491 523.182C 37.80148 523.4498 37.68732 523.7638 37.54242 524.1238L37.54242 524.1238L39.11324 524.4037C 39.18569 524.1556 39.24168 523.9668 39.28119 523.8373C 39.32291 523.7078 39.36681 523.5706 39.41292 523.4257C 39.45902 523.2808 39.50183 523.1304 39.54135 522.9745C 39.58307 522.8186 39.60063 522.7396 39.59404 522.7374L39.59404 522.7374L42.65995 522.7473L42.65995 522.7473L42.65995 521.2555L42.65995 521.2555L41.40197 521.2555C 41.35587 521.0184 41.28342 520.6682 41.18462 520.205C 41.08583 519.7439 41.01338 519.4268 40.96728 519.2533L40.96728 519.2533L43.21319 519.2533z" stroke="none" fill="#000000" fill-rule="winding" /></g></g></g></g></svg>